<?xml version="1.0" encoding="utf-8"?>
<!-- Generator: Adobe Illustrator 16.0.0, SVG Export Plug-In . SVG Version: 6.00 Build 0)  -->
<!DOCTYPE svg PUBLIC "-//W3C//DTD SVG 1.1//EN" "http://www.w3.org/Graphics/SVG/1.1/DTD/svg11.dtd">
<svg version="1.1" id="Layer_1" xmlns="http://www.w3.org/2000/svg" xmlns:xlink="http://www.w3.org/1999/xlink" x="0px" y="0px"
	 width="841.89px" height="353.313px" viewBox="0 0 841.89 353.313" enable-background="new 0 0 841.89 353.313"
	 xml:space="preserve">
<path fill="#4EBD8E" stroke="#000000" stroke-miterlimit="10" d="M15.256,350.716c-4.176,0-7.84-1.643-10.317-4.631
	c-3.342-4.024-3.322-8.885-3.045-11.305V18.931c-0.277-2.418-0.297-7.28,3.045-11.305C7.416,4.64,11.08,2.994,15.256,2.994h739.93
	l3.809,0.836c0.854,0.395,8.439,4.103,12.014,13.037c1.863,4.655,50.471,114.408,69.045,156.307v7.363
	c-18.574,41.896-67.182,151.652-69.045,156.308c-3.574,8.931-11.16,12.642-12.014,13.034l-3.809,0.836H15.256z"/>
<path fill="#4EBD8E" stroke="#000000" stroke-miterlimit="10" d="M10.982,18.301v8.548h25.646c0,0,1.143-0.182,3.167-0.053V12.083
	h-24.54C9.816,12.083,10.982,18.301,10.982,18.301z"/>
<path fill="#0E7CC0" stroke="#000000" stroke-miterlimit="10" d="M762.57,333.471c1.6-3.995,33.467-76.006,53.385-120.975
	l-0.043,0.095l-53.123-24.475h-74.842c0,0-12.531-1.353-12.531,10.839c0,10.818,0,118.533,0,142.674h79.77
	C755.186,341.63,760.236,339.3,762.57,333.471z"/>
<rect x="571.625" y="257.638" fill="#FFFFFF" stroke="#000000" stroke-miterlimit="10" width="44.266" height="83.992"/>
<path fill="#FFFFFF" stroke="#000000" stroke-miterlimit="10" d="M650.283,257.638h-34.393v83.992h44.27V270.75
	C660.16,270.75,660.113,258.745,650.283,257.638z"/>
<g>
	<path d="M582.068,295.726v-0.023c0-2.234,1.684-4.063,4.098-4.063c1.48,0,2.369,0.494,3.098,1.212l-1.1,1.268
		c-0.605-0.549-1.223-0.886-2.01-0.886c-1.324,0-2.279,1.1-2.279,2.446v0.023c0,1.348,0.932,2.47,2.279,2.47
		c0.898,0,1.449-0.358,2.066-0.92l1.102,1.111c-0.811,0.864-1.709,1.404-3.225,1.404
		C583.785,299.768,582.068,297.981,582.068,295.726z"/>
	<path d="M590.203,295.332h3.457v1.64h-3.457V295.332z"/>
	<path d="M595.881,293.469l-1.369,0.337l-0.361-1.414l2.258-0.674h1.178v7.915h-1.705V293.469z"/>
	<path d="M600.156,298.925c-0.574-0.572-0.934-1.414-0.934-2.974v-0.023c0-2.425,1.1-4.288,3.447-4.288
		c1.066,0,1.764,0.314,2.459,0.863l-0.91,1.337c-0.516-0.394-0.93-0.629-1.605-0.629c-0.977,0-1.471,0.787-1.582,1.819
		c0.393-0.258,0.852-0.505,1.627-0.505c1.561,0,2.762,0.865,2.762,2.504v0.023c0,1.605-1.291,2.717-2.996,2.717
		C601.402,299.768,600.705,299.476,600.156,298.925z M603.703,297.129v-0.023c0-0.662-0.516-1.145-1.371-1.145
		c-0.852,0-1.346,0.471-1.346,1.134v0.022c0,0.663,0.516,1.167,1.369,1.167S603.703,297.803,603.703,297.129z"/>
</g>
<g>
	<path d="M626.578,295.726v-0.023c0-2.234,1.684-4.063,4.098-4.063c1.482,0,2.369,0.494,3.1,1.212l-1.1,1.268
		c-0.607-0.549-1.225-0.886-2.01-0.886c-1.326,0-2.279,1.1-2.279,2.446v0.023c0,1.348,0.932,2.47,2.279,2.47
		c0.898,0,1.447-0.358,2.064-0.92l1.102,1.111c-0.809,0.864-1.707,1.404-3.223,1.404
		C628.297,299.768,626.578,297.981,626.578,295.726z"/>
	<path d="M634.713,295.332h3.457v1.64h-3.457V295.332z"/>
	<path d="M640.391,293.469l-1.369,0.337l-0.359-1.414l2.256-0.674h1.18v7.915h-1.707V293.469z"/>
	<path d="M647.586,293.267h-3.695v-1.494h5.66v1.303l-3.525,6.557h-1.955L647.586,293.267z"/>
</g>
<path fill="#5ACBF5" stroke="#000000" stroke-miterlimit="10" d="M649.482,94.47c0,0,25.648-2.419,25.648,26.813
	c0,17.876,0,29.146,0,29.146s-1.553,12.823,13.604,12.823c15.152,0,75.002,0,75.002,0l51.799-22.986
	C795.592,95.242,764.156,24.208,762.57,20.243c-2.334-5.833-7.385-8.16-7.385-8.16H347.194V94.47
	C488.029,94.47,649.482,94.47,649.482,94.47z"/>
<polygon fill="#7DD3F7" stroke="#000000" stroke-miterlimit="10" points="252.294,175.091 207.624,175.091 162.957,175.091 
	118.289,175.091 71.919,175.091 71.919,175.093 118.289,175.093 162.957,175.093 207.624,175.093 252.294,175.093 296.962,175.093 
	341.633,175.093 341.633,175.091 296.962,175.091 "/>
<path fill="#FFFFFF" stroke="#000000" stroke-miterlimit="10" d="M141.946,94.47c1.867,0,12.802,0,30.25,0V12.083h-43.75v79.825
	C131.337,93.236,135.694,94.47,141.946,94.47z"/>
<path fill="#FFFFFF" stroke="#000000" stroke-miterlimit="10" d="M215.947,94.47V12.083h-43.75V94.47
	C184.037,94.47,198.879,94.47,215.947,94.47z"/>
<path fill="#FFFFFF" stroke="#000000" stroke-miterlimit="10" d="M259.697,94.47V12.083h-43.75V94.47
	C229.298,94.47,244.002,94.47,259.697,94.47z"/>
<path fill="#FFFFFF" stroke="#000000" stroke-miterlimit="10" d="M303.447,94.47V12.083h-43.75V94.47
	C273.597,94.47,288.267,94.47,303.447,94.47z"/>
<path fill="#FFFFFF" stroke="#000000" stroke-miterlimit="10" d="M347.194,94.47V12.083h-43.748V94.47
	C317.656,94.47,332.312,94.47,347.194,94.47z"/>
<path fill="#E5DA3B" stroke="#000000" stroke-miterlimit="10" d="M162.957,241.201v-66.108h-44.667v66.108
	C131.007,241.201,146.355,241.201,162.957,241.201z"/>
<path fill="#E5DA3B" stroke="#000000" stroke-miterlimit="10" d="M207.624,241.201v-66.108h-44.667v66.108
	C177.214,241.201,192.392,241.201,207.624,241.201z"/>
<rect x="84.674" y="257.638" fill="#FFFFFF" stroke="#000000" stroke-miterlimit="10" width="44.27" height="83.992"/>
<rect x="128.944" y="257.638" fill="#FFFFFF" stroke="#000000" stroke-miterlimit="10" width="44.267" height="83.992"/>
<rect x="173.211" y="257.638" fill="#FFFFFF" stroke="#000000" stroke-miterlimit="10" width="44.27" height="83.992"/>
<rect x="217.481" y="257.638" fill="#FFFFFF" stroke="#000000" stroke-miterlimit="10" width="44.267" height="83.992"/>
<rect x="261.749" y="257.638" fill="#FFFFFF" stroke="#000000" stroke-miterlimit="10" width="44.266" height="83.992"/>
<rect x="306.014" y="257.638" fill="#FFFFFF" stroke="#000000" stroke-miterlimit="10" width="44.271" height="83.992"/>
<rect x="350.285" y="257.638" fill="#FFFFFF" stroke="#000000" stroke-miterlimit="10" width="44.267" height="83.992"/>
<rect x="394.552" y="257.638" fill="#FFFFFF" stroke="#000000" stroke-miterlimit="10" width="44.266" height="83.992"/>
<rect x="438.818" y="257.638" fill="#FFFFFF" stroke="#000000" stroke-miterlimit="10" width="44.27" height="83.992"/>
<rect x="483.088" y="257.638" fill="#FFFFFF" stroke="#000000" stroke-miterlimit="10" width="44.268" height="83.992"/>
<rect x="527.355" y="257.638" fill="#FFFFFF" stroke="#000000" stroke-miterlimit="10" width="44.27" height="83.992"/>
<path fill="#E5DA3B" stroke="#000000" stroke-miterlimit="10" d="M252.294,241.201v-66.108h-44.67v66.108
	C222.748,241.201,237.92,241.201,252.294,241.201z"/>
<path fill="#E5DA3B" stroke="#000000" stroke-miterlimit="10" d="M296.962,241.201v-66.108h-44.668v66.108
	C268.636,241.201,283.944,241.201,296.962,241.201z"/>
<path fill="#E5DA3B" stroke="#000000" stroke-miterlimit="10" d="M296.962,241.201c24.437,0,40.807,0,40.807,0
	s3.864,0.642,3.864-3.603c0-1.935,0-9.713,0-17.605v-19.007v-25.893h-44.67V241.201z"/>
<polygon fill="#E5DA3B" stroke="#000000" stroke-miterlimit="10" points="351.176,175.093 351.176,200.986 351.176,219.993 
	351.176,228.754 351.176,241.236 395.315,241.236 395.315,175.093 "/>
<rect x="395.315" y="175.093" fill="#E5DA3B" stroke="#000000" stroke-miterlimit="10" width="44.142" height="66.143"/>
<rect x="439.457" y="175.093" fill="#E5DA3B" stroke="#000000" stroke-miterlimit="10" width="44.141" height="66.143"/>
<rect x="483.598" y="175.093" fill="#E5DA3B" stroke="#000000" stroke-miterlimit="10" width="44.139" height="66.143"/>
<rect x="527.736" y="175.093" fill="#E5DA3B" stroke="#000000" stroke-miterlimit="10" width="44.143" height="66.143"/>
<path fill="#E5DA3B" stroke="#000000" stroke-miterlimit="10" d="M395.315,108.947c-26.583,0-44.14,0-44.14,0v66.144h44.14V108.947z
	"/>
<path fill="#E5DA3B" stroke="#000000" stroke-miterlimit="10" d="M439.457,175.091v-66.144c-16.195,0-31.229,0-44.142,0v66.144
	H439.457z"/>
<path fill="#E5DA3B" stroke="#000000" stroke-miterlimit="10" d="M483.598,175.091v-66.144c-15.16,0-30.086,0-44.141,0v66.144
	H483.598z"/>
<path fill="#E5DA3B" stroke="#000000" stroke-miterlimit="10" d="M527.736,175.091v-66.144c-14.545,0-29.449,0-44.139,0v66.144
	H527.736z"/>
<path fill="#E5DA3B" stroke="#000000" stroke-miterlimit="10" d="M571.879,175.091v-66.144c-13.854,0-28.797,0-44.143,0v66.144
	H571.879z"/>
<path fill="#E5DA3B" stroke="#000000" stroke-miterlimit="10" d="M118.289,175.091v-66.144h-46.37c0,15.237,0,43.896,0,66.144
	H118.289z"/>
<path fill="#E5DA3B" stroke="#000000" stroke-miterlimit="10" d="M118.289,175.091h44.667v-66.144c-12.888,0-21.013,0-21.013,0
	h-23.654V175.091z"/>
<path fill="#E5DA3B" stroke="#000000" stroke-miterlimit="10" d="M207.624,175.091v-66.144c-17.156,0-32.897,0-44.667,0v66.144
	H207.624z"/>
<path fill="#E5DA3B" stroke="#000000" stroke-miterlimit="10" d="M252.294,175.091v-66.144c-14.88,0-30.272,0-44.67,0v66.144
	H252.294z"/>
<path fill="#E5DA3B" stroke="#000000" stroke-miterlimit="10" d="M296.962,175.091v-66.144c-13.003,0-28.529,0-44.668,0v66.144
	H296.962z"/>
<path fill="#E5DA3B" stroke="#000000" stroke-miterlimit="10" d="M341.633,175.091v-57.694c0,0,0.062-8.45-10.042-8.45
	c-2.556,0-15.994,0-34.628,0v66.144H341.633z"/>
<polygon fill="#FFFFFF" stroke="#000000" stroke-miterlimit="10" points="54.895,137.73 10.982,137.73 10.982,176.858 
	10.982,202.645 54.895,202.645 54.895,199.632 "/>
<path fill="#FFFFFF" stroke="#000000" stroke-miterlimit="10" d="M84.674,257.548h-1.244c0,0-28.536-2.428-28.536-26.837
	c0-16.51,0-22.534,0-24.708v-1.205v-2.154H10.982v132.767v2.619c0.282,1.7,1.267,3.6,4.273,3.6h69.418v-83.992V257.548z"/>
<path fill="#E5DA3B" stroke="#000000" stroke-miterlimit="10" d="M71.919,175.093c0,10.141,0,18.95,0,24.539
	c0,1.145,0,2.154,0,3.012c0,2.149,0,3.359,0,3.359v22.753c0,0,1.719,12.444,11.359,12.444c0.272,0,0.75,0,1.396,0
	c4.309,0,16.604,0,33.615,0v-66.108H71.919z"/>
<path fill="#FFFFFF" stroke="#000000" stroke-miterlimit="10" d="M64.222,38.119c15.543,13.213,59.458,50.522,59.458,50.522
	s1.367,1.702,4.766,3.267V12.083h-88.65v14.714C44.364,27.087,53.453,28.964,64.222,38.119z"/>
<path fill="#FFFFFF" stroke="#000000" stroke-miterlimit="10" d="M39.796,52.143c-1.543-0.27-3.234-0.421-5.11-0.421
	c-11.579,0-19.227,0-23.704,0v86.009h43.913V94.47V69.598v-0.116C54.887,68.158,54.45,54.696,39.796,52.143z"/>
<path fill="#FFFFFF" stroke="#000000" stroke-miterlimit="10" d="M115.602,101.805c-2.818-2.817-5.418-5.25-7.822-7.334
	c-8.664-7.516-14.753-10.493-19.075-10.493c-8.128,0-14.033,4.78-16.036,10.493c-0.487,1.389-0.75,2.831-0.75,4.273
	c0,1.207,0,4.894,0,10.204h46.37h23.654C141.943,108.947,122.589,108.796,115.602,101.805z"/>
<g>
	<path d="M34.042,295.726v-0.023c0-2.234,1.684-4.063,4.098-4.063c1.481,0,2.37,0.494,3.099,1.212l-1.1,1.268
		c-0.606-0.549-1.223-0.886-2.009-0.886c-1.325,0-2.279,1.1-2.279,2.446v0.023c0,1.348,0.931,2.47,2.279,2.47
		c0.898,0,1.448-0.358,2.065-0.92l1.102,1.111c-0.81,0.864-1.708,1.404-3.224,1.404C35.76,299.768,34.042,297.981,34.042,295.726z"
		/>
	<path d="M42.177,295.332h3.458v1.64h-3.458V295.332z"/>
	<path d="M46.507,298.409l1.191-1.134c0.539,0.606,1.101,0.943,1.897,0.943c0.651,0,1.111-0.371,1.111-0.955v-0.022
		c0-0.64-0.572-1-1.537-1H48.45l-0.269-1.1l1.874-1.886h-3.088v-1.482h5.312v1.303l-1.988,1.897c1.068,0.18,2.111,0.74,2.111,2.2
		v0.023c0,1.482-1.077,2.571-2.83,2.571C48.158,299.768,47.181,299.206,46.507,298.409z"/>
</g>
<g>
	<path d="M97.166,295.727v-0.023c0-2.234,1.684-4.063,4.098-4.063c1.482,0,2.37,0.494,3.099,1.212l-1.1,1.268
		c-0.606-0.55-1.223-0.887-2.009-0.887c-1.325,0-2.279,1.1-2.279,2.448v0.021c0,1.348,0.931,2.47,2.279,2.47
		c0.898,0,1.448-0.358,2.065-0.92l1.102,1.111c-0.809,0.865-1.708,1.405-3.224,1.405C98.883,299.77,97.166,297.983,97.166,295.727z"
		/>
	<path d="M105.3,295.333h3.458v1.64H105.3V295.333z"/>
	<path d="M113.785,297.938h-3.839l-0.281-1.224l4.312-4.996h1.46v4.816h1.056v1.403h-1.056v1.695h-1.651V297.938z M113.785,296.535
		v-2.448l-2.088,2.448H113.785z"/>
</g>
<g>
	<path d="M86.393,138.166h3.648c0.899,0,1.606,0.248,2.056,0.697c0.359,0.358,0.539,0.797,0.539,1.335v0.023
		c0,0.886-0.471,1.38-1.032,1.694c0.909,0.349,1.471,0.875,1.471,1.931v0.023c0,1.437-1.168,2.156-2.942,2.156h-3.739V138.166z
		 M89.671,141.343c0.763,0,1.246-0.247,1.246-0.831v-0.021c0-0.517-0.404-0.81-1.134-0.81h-1.708v1.662H89.671z M90.131,144.51
		c0.763,0,1.223-0.27,1.223-0.854v-0.021c0-0.528-0.392-0.854-1.28-0.854h-1.999v1.729H90.131z"/>
	<path d="M94.111,141.725h3.458v1.64h-3.458V141.725z"/>
	<path d="M99.79,139.861l-1.37,0.337l-0.36-1.414l2.257-0.674h1.179v7.915H99.79V139.861z"/>
</g>
<g>
	<path d="M81.383,200.305h3.648c0.898,0,1.606,0.248,2.055,0.697c0.359,0.358,0.539,0.797,0.539,1.335v0.023
		c0,0.887-0.471,1.38-1.032,1.694c0.909,0.349,1.471,0.877,1.471,1.931v0.023c0,1.437-1.167,2.156-2.942,2.156h-3.739V200.305z
		 M84.662,203.482c0.763,0,1.246-0.246,1.246-0.831v-0.021c0-0.517-0.404-0.809-1.134-0.809h-1.708v1.662H84.662z M85.122,206.649
		c0.763,0,1.224-0.269,1.224-0.854v-0.021c0-0.528-0.393-0.854-1.28-0.854h-1.999v1.729H85.122z"/>
	<path d="M89.102,203.864h3.458v1.64h-3.458V203.864z"/>
	<path d="M93.669,206.795l2.616-2.145c0.977-0.808,1.358-1.236,1.358-1.887c0-0.662-0.438-1.021-1.055-1.021
		c-0.606,0-1.022,0.337-1.606,1.056l-1.212-0.977c0.775-1.056,1.528-1.628,2.931-1.628c1.628,0,2.705,0.954,2.705,2.425v0.023
		c0,1.314-0.674,1.965-2.065,3.042l-1.28,0.989h3.423v1.493h-5.814V206.795z"/>
	<path d="M101.646,207.457c-0.572-0.573-0.932-1.415-0.932-2.975v-0.023c0-2.425,1.1-4.289,3.447-4.289
		c1.066,0,1.763,0.314,2.458,0.863l-0.909,1.337c-0.517-0.394-0.933-0.629-1.605-0.629c-0.977,0-1.471,0.786-1.583,1.819
		c0.393-0.259,0.853-0.505,1.628-0.505c1.561,0,2.762,0.865,2.762,2.503v0.023c0,1.605-1.291,2.717-2.998,2.717
		C102.893,208.3,102.195,208.008,101.646,207.457z M105.193,205.661v-0.023c0-0.662-0.516-1.145-1.37-1.145
		c-0.853,0-1.346,0.471-1.346,1.134v0.021c0,0.663,0.516,1.168,1.37,1.168C104.699,206.817,105.193,206.335,105.193,205.661z"/>
</g>
<g>
	<path d="M131.732,138.166h3.648c0.898,0,1.606,0.248,2.056,0.697c0.358,0.358,0.539,0.797,0.539,1.335v0.023
		c0,0.886-0.471,1.38-1.033,1.694c0.91,0.349,1.471,0.875,1.471,1.931v0.023c0,1.437-1.168,2.156-2.942,2.156h-3.739V138.166z
		 M135.012,141.343c0.763,0,1.246-0.247,1.246-0.831v-0.021c0-0.517-0.405-0.81-1.134-0.81h-1.708v1.662H135.012z M135.472,144.51
		c0.763,0,1.223-0.27,1.223-0.854v-0.021c0-0.528-0.392-0.854-1.28-0.854h-1.999v1.729H135.472z"/>
	<path d="M139.452,141.725h3.458v1.64h-3.458V141.725z"/>
	<path d="M144.019,144.656l2.616-2.145c0.977-0.808,1.359-1.235,1.359-1.886c0-0.662-0.438-1.022-1.056-1.022
		c-0.606,0-1.021,0.337-1.606,1.056l-1.213-0.977c0.775-1.055,1.528-1.628,2.931-1.628c1.628,0,2.705,0.954,2.705,2.425v0.023
		c0,1.314-0.674,1.965-2.065,3.042l-1.28,0.989h3.424v1.493h-5.815V144.656z"/>
</g>
<g>
	<path d="M143.969,45.361h1.594l3.369,7.915h-1.807l-0.719-1.764h-3.324l-0.718,1.764h-1.763L143.969,45.361z M145.787,49.986
		l-1.043-2.548l-1.045,2.548H145.787z"/>
	<path d="M149.307,48.975h3.458v1.64h-3.458V48.975z"/>
	<path d="M153.875,51.906l2.616-2.145c0.977-0.808,1.358-1.235,1.358-1.886c0-0.662-0.438-1.022-1.055-1.022
		c-0.606,0-1.022,0.337-1.606,1.056l-1.212-0.977c0.775-1.056,1.528-1.628,2.931-1.628c1.628,0,2.705,0.954,2.705,2.425v0.023
		c0,1.314-0.674,1.965-2.065,3.042l-1.28,0.989h3.423v1.493h-5.814V51.906z"/>
</g>
<g>
	<path d="M187.784,45.361h1.594l3.368,7.915h-1.807l-0.719-1.764h-3.323l-0.719,1.764h-1.763L187.784,45.361z M189.603,49.986
		l-1.043-2.548l-1.044,2.548H189.603z"/>
	<path d="M193.122,48.975h3.458v1.64h-3.458V48.975z"/>
	<path d="M197.453,52.052l1.191-1.134c0.539,0.606,1.1,0.943,1.897,0.943c0.651,0,1.111-0.371,1.111-0.956v-0.021
		c0-0.64-0.573-1-1.538-1h-0.718l-0.27-1.1l1.875-1.886h-3.088v-1.482h5.312v1.303l-1.988,1.897c1.068,0.18,2.111,0.74,2.111,2.2
		v0.023c0,1.482-1.077,2.571-2.83,2.571C199.104,53.411,198.126,52.85,197.453,52.052z"/>
</g>
<g>
	<path d="M231.097,45.361h1.594l3.368,7.915h-1.807l-0.718-1.764h-3.324l-0.719,1.764h-1.763L231.097,45.361z M232.916,49.986
		l-1.043-2.548l-1.044,2.548H232.916z"/>
	<path d="M236.436,48.975h3.458v1.64h-3.458V48.975z"/>
	<path d="M244.92,51.58h-3.839l-0.282-1.223l4.312-4.996h1.46v4.816h1.055v1.403h-1.055v1.696h-1.651V51.58z M244.92,50.177v-2.448
		l-2.088,2.448H244.92z"/>
</g>
<g>
	<path d="M275.179,45.361h1.594l3.368,7.915h-1.806l-0.719-1.764h-3.324l-0.718,1.764h-1.763L275.179,45.361z M276.997,49.986
		l-1.043-2.548l-1.045,2.548H276.997z"/>
	<path d="M280.517,48.975h3.458v1.64h-3.458V48.975z"/>
	<path d="M285.017,52.231l1.043-1.246c0.595,0.54,1.18,0.854,1.875,0.854c0.808,0,1.314-0.392,1.314-1.089v-0.021
		c0-0.674-0.572-1.068-1.393-1.068c-0.494,0-0.943,0.136-1.314,0.292l-0.999-0.662l0.225-3.875h4.827v1.516h-3.345l-0.091,1.359
		c0.315-0.079,0.595-0.134,1.034-0.134c1.526,0,2.751,0.74,2.751,2.515v0.023c0,1.662-1.18,2.717-2.987,2.717
		C286.7,53.411,285.78,52.962,285.017,52.231z"/>
</g>
<g>
	<path d="M318.75,45.361h1.594l3.368,7.915h-1.807l-0.718-1.764h-3.324l-0.719,1.764h-1.763L318.75,45.361z M320.569,49.986
		l-1.043-2.548l-1.044,2.548H320.569z"/>
	<path d="M324.088,48.975h3.458v1.64h-3.458V48.975z"/>
	<path d="M329.644,52.568c-0.572-0.572-0.932-1.414-0.932-2.974V49.57c0-2.425,1.1-4.288,3.446-4.288
		c1.066,0,1.764,0.314,2.459,0.863l-0.909,1.337c-0.517-0.394-0.931-0.629-1.605-0.629c-0.977,0-1.471,0.787-1.583,1.819
		c0.393-0.258,0.853-0.504,1.628-0.504c1.561,0,2.762,0.864,2.762,2.503v0.023c0,1.605-1.291,2.717-2.998,2.717
		C330.89,53.411,330.193,53.119,329.644,52.568z M333.19,50.772v-0.023c0-0.662-0.516-1.145-1.37-1.145
		c-0.853,0-1.346,0.471-1.346,1.134v0.022c0,0.663,0.516,1.167,1.369,1.167C332.696,51.928,333.19,51.446,333.19,50.772z"/>
</g>
<g>
	<path d="M96.126,45.361h1.594l3.368,7.915h-1.806l-0.719-1.764H95.24l-0.718,1.764h-1.764L96.126,45.361z M97.945,49.986
		l-1.043-2.548l-1.045,2.548H97.945z"/>
	<path d="M101.465,48.975h3.458v1.64h-3.458V48.975z"/>
	<path d="M107.143,47.112l-1.37,0.337l-0.36-1.414l2.257-0.674h1.179v7.915h-1.707V47.112z"/>
</g>
<g>
	<path d="M128.198,200.305h3.648c0.898,0,1.606,0.248,2.056,0.697c0.358,0.358,0.539,0.797,0.539,1.335v0.023
		c0,0.887-0.471,1.38-1.033,1.694c0.91,0.349,1.471,0.877,1.471,1.931v0.023c0,1.437-1.168,2.156-2.942,2.156h-3.739V200.305z
		 M131.477,203.482c0.763,0,1.246-0.246,1.246-0.831v-0.021c0-0.517-0.405-0.809-1.134-0.809h-1.708v1.662H131.477z
		 M131.937,206.649c0.763,0,1.223-0.269,1.223-0.854v-0.021c0-0.528-0.392-0.854-1.28-0.854h-1.999v1.729H131.937z"/>
	<path d="M135.917,203.864h3.458v1.64h-3.458V203.864z"/>
	<path d="M140.484,206.795l2.616-2.145c0.977-0.808,1.359-1.236,1.359-1.887c0-0.662-0.438-1.021-1.056-1.021
		c-0.606,0-1.021,0.337-1.606,1.056l-1.213-0.977c0.775-1.056,1.528-1.628,2.931-1.628c1.628,0,2.705,0.954,2.705,2.425v0.023
		c0,1.314-0.674,1.965-2.065,3.042l-1.28,0.989h3.424v1.493h-5.815V206.795z"/>
	<path d="M147.406,207.12l1.043-1.247c0.595,0.54,1.18,0.854,1.875,0.854c0.808,0,1.314-0.393,1.314-1.089v-0.022
		c0-0.674-0.572-1.067-1.393-1.067c-0.494,0-0.943,0.135-1.314,0.292l-0.999-0.662l0.225-3.874h4.827v1.516h-3.345l-0.091,1.358
		c0.315-0.079,0.596-0.134,1.034-0.134c1.527,0,2.751,0.74,2.751,2.514v0.023c0,1.662-1.18,2.717-2.987,2.717
		C149.089,208.3,148.169,207.851,147.406,207.12z"/>
</g>
<g>
	<path d="M176.469,138.166h3.648c0.898,0,1.606,0.248,2.056,0.697c0.358,0.358,0.539,0.797,0.539,1.335v0.023
		c0,0.886-0.471,1.38-1.033,1.694c0.91,0.349,1.471,0.875,1.471,1.931v0.023c0,1.437-1.168,2.156-2.942,2.156h-3.739V138.166z
		 M179.748,141.343c0.763,0,1.247-0.247,1.247-0.831v-0.021c0-0.517-0.405-0.81-1.134-0.81h-1.708v1.662H179.748z M180.208,144.51
		c0.763,0,1.223-0.27,1.223-0.854v-0.021c0-0.528-0.393-0.854-1.28-0.854h-1.999v1.729H180.208z"/>
	<path d="M184.188,141.725h3.458v1.64h-3.458V141.725z"/>
	<path d="M188.519,144.802l1.191-1.134c0.539,0.606,1.1,0.943,1.897,0.943c0.651,0,1.111-0.371,1.111-0.956v-0.021
		c0-0.64-0.573-1-1.538-1h-0.718l-0.27-1.1l1.875-1.886h-3.088v-1.482h5.312v1.303l-1.988,1.897c1.068,0.18,2.111,0.74,2.111,2.2
		v0.023c0,1.482-1.077,2.571-2.83,2.571C190.169,146.161,189.192,145.599,188.519,144.802z"/>
</g>
<g>
	<path d="M172.621,200.305h3.648c0.898,0,1.606,0.248,2.056,0.697c0.358,0.358,0.539,0.797,0.539,1.335v0.023
		c0,0.887-0.471,1.38-1.033,1.694c0.91,0.349,1.471,0.877,1.471,1.931v0.023c0,1.437-1.168,2.156-2.942,2.156h-3.739V200.305z
		 M175.899,203.482c0.763,0,1.247-0.246,1.247-0.831v-0.021c0-0.517-0.405-0.809-1.134-0.809h-1.708v1.662H175.899z M176.36,206.649
		c0.763,0,1.223-0.269,1.223-0.854v-0.021c0-0.528-0.393-0.854-1.28-0.854h-1.999v1.729H176.36z"/>
	<path d="M180.339,203.864h3.458v1.64h-3.458V203.864z"/>
	<path d="M184.907,206.795l2.616-2.145c0.977-0.808,1.359-1.236,1.359-1.887c0-0.662-0.438-1.021-1.056-1.021
		c-0.606,0-1.021,0.337-1.606,1.056l-1.212-0.977c0.775-1.056,1.528-1.628,2.931-1.628c1.628,0,2.705,0.954,2.705,2.425v0.023
		c0,1.314-0.674,1.965-2.065,3.042l-1.28,0.989h3.424v1.493h-5.815V206.795z"/>
	<path d="M195.646,206.469h-3.839l-0.282-1.223l4.312-4.996h1.46v4.816h1.056v1.403h-1.056v1.696h-1.651V206.469z M195.646,205.065
		v-2.448l-2.088,2.448H195.646z"/>
</g>
<g>
	<path d="M220.699,138.166h3.648c0.899,0,1.606,0.248,2.056,0.697c0.359,0.358,0.539,0.797,0.539,1.335v0.023
		c0,0.886-0.471,1.38-1.032,1.694c0.909,0.349,1.471,0.875,1.471,1.931v0.023c0,1.437-1.168,2.156-2.942,2.156h-3.739V138.166z
		 M223.978,141.343c0.763,0,1.246-0.247,1.246-0.831v-0.021c0-0.517-0.404-0.81-1.134-0.81h-1.708v1.662H223.978z M224.438,144.51
		c0.763,0,1.223-0.27,1.223-0.854v-0.021c0-0.528-0.392-0.854-1.28-0.854h-1.999v1.729H224.438z"/>
	<path d="M228.417,141.725h3.458v1.64h-3.458V141.725z"/>
	<path d="M236.902,144.33h-3.839l-0.281-1.223l4.311-4.996h1.46v4.816h1.056v1.403h-1.056v1.696h-1.651V144.33z M236.902,142.926
		v-2.448l-2.088,2.448H236.902z"/>
</g>
<g>
	<path d="M217.586,200.305h3.648c0.898,0,1.606,0.248,2.056,0.697c0.358,0.358,0.539,0.797,0.539,1.335v0.023
		c0,0.887-0.471,1.38-1.033,1.694c0.91,0.349,1.471,0.877,1.471,1.931v0.023c0,1.437-1.168,2.156-2.942,2.156h-3.739V200.305z
		 M220.865,203.482c0.764,0,1.247-0.246,1.247-0.831v-0.021c0-0.517-0.405-0.809-1.134-0.809h-1.708v1.662H220.865z
		 M221.325,206.649c0.763,0,1.223-0.269,1.223-0.854v-0.021c0-0.528-0.393-0.854-1.28-0.854h-1.999v1.729H221.325z"/>
	<path d="M225.305,203.864h3.458v1.64h-3.458V203.864z"/>
	<path d="M229.872,206.795l2.616-2.145c0.977-0.808,1.359-1.236,1.359-1.887c0-0.662-0.438-1.021-1.056-1.021
		c-0.606,0-1.021,0.337-1.606,1.056l-1.212-0.977c0.775-1.056,1.528-1.628,2.931-1.628c1.628,0,2.705,0.954,2.705,2.425v0.023
		c0,1.314-0.674,1.965-2.065,3.042l-1.28,0.989h3.424v1.493h-5.815V206.795z"/>
	<path d="M236.737,206.941l1.19-1.134c0.539,0.606,1.101,0.943,1.897,0.943c0.651,0,1.111-0.371,1.111-0.956v-0.021
		c0-0.64-0.572-1-1.537-1h-0.719l-0.269-1.1l1.874-1.887h-3.088v-1.481h5.312v1.303l-1.988,1.897c1.068,0.18,2.111,0.74,2.111,2.2
		v0.023c0,1.482-1.077,2.571-2.83,2.571C238.388,208.3,237.411,207.738,236.737,206.941z"/>
</g>
<g>
	<path d="M265.699,138.166h3.648c0.898,0,1.606,0.248,2.055,0.697c0.359,0.358,0.539,0.797,0.539,1.335v0.023
		c0,0.886-0.471,1.38-1.032,1.694c0.909,0.349,1.471,0.875,1.471,1.931v0.023c0,1.437-1.167,2.156-2.942,2.156h-3.739V138.166z
		 M268.978,141.343c0.763,0,1.246-0.247,1.246-0.831v-0.021c0-0.517-0.404-0.81-1.134-0.81h-1.708v1.662H268.978z M269.438,144.51
		c0.763,0,1.224-0.27,1.224-0.854v-0.021c0-0.528-0.393-0.854-1.28-0.854h-1.999v1.729H269.438z"/>
	<path d="M273.418,141.725h3.458v1.64h-3.458V141.725z"/>
	<path d="M277.917,144.98l1.043-1.246c0.595,0.54,1.18,0.854,1.875,0.854c0.808,0,1.314-0.392,1.314-1.089v-0.021
		c0-0.674-0.572-1.068-1.393-1.068c-0.494,0-0.943,0.136-1.314,0.292l-0.999-0.662l0.225-3.875h4.827v1.516h-3.345l-0.091,1.359
		c0.315-0.079,0.595-0.134,1.034-0.134c1.526,0,2.751,0.74,2.751,2.515v0.023c0,1.662-1.18,2.717-2.987,2.717
		C279.601,146.161,278.681,145.711,277.917,144.98z"/>
</g>
<g>
	<path d="M262.243,200.305h3.648c0.899,0,1.606,0.248,2.056,0.697c0.359,0.358,0.539,0.797,0.539,1.335v0.023
		c0,0.887-0.471,1.38-1.032,1.694c0.909,0.349,1.471,0.877,1.471,1.931v0.023c0,1.437-1.168,2.156-2.942,2.156h-3.739V200.305z
		 M265.522,203.482c0.763,0,1.246-0.246,1.246-0.831v-0.021c0-0.517-0.405-0.809-1.134-0.809h-1.708v1.662H265.522z
		 M265.982,206.649c0.763,0,1.223-0.269,1.223-0.854v-0.021c0-0.528-0.392-0.854-1.28-0.854h-1.999v1.729H265.982z"/>
	<path d="M269.962,203.864h3.458v1.64h-3.458V203.864z"/>
	<path d="M274.529,206.795l2.616-2.145c0.978-0.808,1.359-1.236,1.359-1.887c0-0.662-0.438-1.021-1.056-1.021
		c-0.606,0-1.021,0.337-1.606,1.056l-1.213-0.977c0.775-1.056,1.528-1.628,2.931-1.628c1.628,0,2.705,0.954,2.705,2.425v0.023
		c0,1.314-0.674,1.965-2.065,3.042l-1.28,0.989h3.424v1.493h-5.815V206.795z"/>
	<path d="M281.519,206.795l2.616-2.145c0.977-0.808,1.358-1.236,1.358-1.887c0-0.662-0.438-1.021-1.055-1.021
		c-0.606,0-1.022,0.337-1.606,1.056l-1.212-0.977c0.775-1.056,1.528-1.628,2.931-1.628c1.628,0,2.705,0.954,2.705,2.425v0.023
		c0,1.314-0.674,1.965-2.065,3.042l-1.28,0.989h3.424v1.493h-5.815V206.795z"/>
</g>
<g>
	<path d="M310.188,138.166h3.648c0.898,0,1.606,0.248,2.056,0.697c0.358,0.358,0.539,0.797,0.539,1.335v0.023
		c0,0.886-0.471,1.38-1.033,1.694c0.91,0.349,1.471,0.875,1.471,1.931v0.023c0,1.437-1.168,2.156-2.942,2.156h-3.739V138.166z
		 M313.467,141.343c0.764,0,1.247-0.247,1.247-0.831v-0.021c0-0.517-0.405-0.81-1.134-0.81h-1.708v1.662H313.467z M313.927,144.51
		c0.763,0,1.223-0.27,1.223-0.854v-0.021c0-0.528-0.393-0.854-1.28-0.854h-1.999v1.729H313.927z"/>
	<path d="M317.907,141.725h3.458v1.64h-3.458V141.725z"/>
	<path d="M323.462,145.317c-0.572-0.572-0.932-1.414-0.932-2.974v-0.023c0-2.425,1.1-4.289,3.447-4.289
		c1.066,0,1.763,0.314,2.458,0.863l-0.909,1.337c-0.517-0.394-0.931-0.629-1.605-0.629c-0.977,0-1.471,0.787-1.583,1.819
		c0.393-0.258,0.853-0.504,1.628-0.504c1.561,0,2.762,0.864,2.762,2.503v0.023c0,1.605-1.291,2.717-2.998,2.717
		C324.708,146.161,324.011,145.868,323.462,145.317z M327.009,143.522v-0.023c0-0.662-0.516-1.145-1.369-1.145
		c-0.853,0-1.347,0.471-1.347,1.134v0.023c0,0.662,0.516,1.167,1.37,1.167C326.515,144.677,327.009,144.196,327.009,143.522z"/>
</g>
<g>
	<path d="M308.041,200.305h3.648c0.898,0,1.606,0.248,2.056,0.697c0.358,0.358,0.539,0.797,0.539,1.335v0.023
		c0,0.887-0.471,1.38-1.033,1.694c0.909,0.349,1.471,0.877,1.471,1.931v0.023c0,1.437-1.168,2.156-2.942,2.156h-3.739V200.305z
		 M311.319,203.482c0.763,0,1.247-0.246,1.247-0.831v-0.021c0-0.517-0.405-0.809-1.134-0.809h-1.708v1.662H311.319z
		 M311.779,206.649c0.764,0,1.224-0.269,1.224-0.854v-0.021c0-0.528-0.393-0.854-1.28-0.854h-1.999v1.729H311.779z"/>
	<path d="M315.759,203.864h3.458v1.64h-3.458V203.864z"/>
	<path d="M320.327,206.795l2.616-2.145c0.977-0.808,1.359-1.236,1.359-1.887c0-0.662-0.438-1.021-1.056-1.021
		c-0.606,0-1.022,0.337-1.606,1.056l-1.212-0.977c0.775-1.056,1.528-1.628,2.931-1.628c1.628,0,2.705,0.954,2.705,2.425v0.023
		c0,1.314-0.674,1.965-2.065,3.042l-1.28,0.989h3.424v1.493h-5.815V206.795z"/>
	<path d="M328.764,202l-1.37,0.337l-0.36-1.414l2.257-0.674h1.179v7.915h-1.707V202z"/>
</g>
<g>
	<path d="M364.601,138.166h3.648c0.898,0,1.606,0.248,2.055,0.697c0.359,0.358,0.539,0.797,0.539,1.335v0.023
		c0,0.886-0.471,1.38-1.032,1.694c0.909,0.349,1.471,0.875,1.471,1.931v0.023c0,1.437-1.167,2.156-2.942,2.156h-3.739V138.166z
		 M367.879,141.343c0.763,0,1.246-0.247,1.246-0.831v-0.021c0-0.517-0.404-0.81-1.134-0.81h-1.708v1.662H367.879z M368.339,144.51
		c0.763,0,1.224-0.27,1.224-0.854v-0.021c0-0.528-0.393-0.854-1.28-0.854h-1.999v1.729H368.339z"/>
	<path d="M372.319,141.725h3.458v1.64h-3.458V141.725z"/>
	<path d="M380.344,139.66h-3.694v-1.494h5.659v1.303l-3.525,6.557h-1.954L380.344,139.66z"/>
</g>
<g>
	<path d="M360.259,200.305h3.648c0.898,0,1.606,0.248,2.056,0.697c0.358,0.358,0.539,0.797,0.539,1.335v0.023
		c0,0.887-0.471,1.38-1.033,1.694c0.909,0.349,1.471,0.877,1.471,1.931v0.023c0,1.437-1.168,2.156-2.942,2.156h-3.739V200.305z
		 M363.538,203.482c0.763,0,1.247-0.246,1.247-0.831v-0.021c0-0.517-0.405-0.809-1.134-0.809h-1.708v1.662H363.538z
		 M363.998,206.649c0.764,0,1.224-0.269,1.224-0.854v-0.021c0-0.528-0.393-0.854-1.28-0.854h-1.999v1.729H363.998z"/>
	<path d="M367.978,203.864h3.458v1.64h-3.458V203.864z"/>
	<path d="M372.545,206.795l2.616-2.145c0.977-0.808,1.358-1.236,1.358-1.887c0-0.662-0.438-1.021-1.055-1.021
		c-0.606,0-1.022,0.337-1.606,1.056l-1.212-0.977c0.775-1.056,1.528-1.628,2.931-1.628c1.628,0,2.705,0.954,2.705,2.425v0.023
		c0,1.314-0.674,1.965-2.065,3.042l-1.28,0.989h3.424v1.493h-5.815V206.795z"/>
	<path d="M379.59,204.258v-0.023c0-2.279,1.414-4.064,3.503-4.064c2.077,0,3.48,1.762,3.48,4.041v0.023
		c0,2.279-1.403,4.065-3.503,4.065C380.972,208.3,379.59,206.537,379.59,204.258z M384.8,204.258v-0.023
		c0-1.426-0.697-2.503-1.729-2.503s-1.707,1.043-1.707,2.48v0.023c0,1.437,0.685,2.503,1.729,2.503
		C384.137,206.738,384.8,205.683,384.8,204.258z"/>
</g>
<g>
	<path d="M407.756,138.166h3.648c0.898,0,1.606,0.248,2.056,0.697c0.358,0.358,0.539,0.797,0.539,1.335v0.023
		c0,0.886-0.471,1.38-1.033,1.694c0.91,0.349,1.471,0.875,1.471,1.931v0.023c0,1.437-1.168,2.156-2.942,2.156h-3.739V138.166z
		 M411.036,141.343c0.763,0,1.246-0.247,1.246-0.831v-0.021c0-0.517-0.405-0.81-1.134-0.81h-1.708v1.662H411.036z M411.496,144.51
		c0.763,0,1.223-0.27,1.223-0.854v-0.021c0-0.528-0.392-0.854-1.28-0.854h-1.999v1.729H411.496z"/>
	<path d="M415.476,141.725h3.458v1.64h-3.458V141.725z"/>
	<path d="M419.997,143.87v-0.023c0-0.954,0.438-1.516,1.27-1.897c-0.606-0.371-1-0.875-1-1.717v-0.023
		c0-1.202,1.102-2.156,2.764-2.156c1.66,0,2.762,0.943,2.762,2.156v0.023c0,0.842-0.395,1.347-1,1.717
		c0.797,0.416,1.27,0.922,1.27,1.853v0.023c0,1.459-1.291,2.313-3.031,2.313S419.997,145.239,419.997,143.87z M424.387,143.734
		v-0.022c0-0.606-0.572-0.966-1.357-0.966c-0.787,0-1.359,0.36-1.359,0.966v0.022c0,0.54,0.505,0.977,1.359,0.977
		C423.881,144.711,424.387,144.285,424.387,143.734z M424.15,140.423V140.4c0-0.483-0.416-0.92-1.121-0.92
		c-0.709,0-1.123,0.426-1.123,0.91v0.023c0,0.549,0.436,0.965,1.123,0.965C423.713,141.377,424.15,140.972,424.15,140.423z"/>
</g>
<g>
	<path d="M407.498,200.305h3.648c0.898,0,1.606,0.248,2.056,0.697c0.358,0.358,0.539,0.797,0.539,1.335v0.023
		c0,0.887-0.471,1.38-1.033,1.694c0.909,0.349,1.471,0.877,1.471,1.931v0.023c0,1.437-1.168,2.156-2.942,2.156h-3.739V200.305z
		 M410.777,203.482c0.763,0,1.247-0.246,1.247-0.831v-0.021c0-0.517-0.405-0.809-1.134-0.809h-1.708v1.662H410.777z
		 M411.237,206.649c0.763,0,1.223-0.269,1.223-0.854v-0.021c0-0.528-0.393-0.854-1.28-0.854h-1.999v1.729H411.237z"/>
	<path d="M416.654,202l-1.37,0.337l-0.36-1.414l2.257-0.674h1.179v7.915h-1.706V202z"/>
	<path d="M420.198,207.368l0.909-1.314c0.574,0.46,1.055,0.674,1.719,0.674c0.965,0,1.48-0.729,1.594-1.785
		c-0.381,0.325-0.91,0.539-1.594,0.539c-1.707,0-2.807-0.943-2.807-2.537v-0.023c0-1.583,1.224-2.75,2.996-2.75
		c1.057,0,1.674,0.257,2.27,0.853c0.561,0.562,0.932,1.416,0.932,2.965v0.022c0,2.549-1.201,4.29-3.436,4.29
		C421.635,208.3,420.861,207.917,420.198,207.368z M424.453,202.876v-0.021c0-0.697-0.516-1.202-1.381-1.202
		c-0.854,0-1.335,0.494-1.335,1.189v0.023c0,0.696,0.517,1.179,1.369,1.179C423.959,204.044,424.453,203.55,424.453,202.876z"/>
</g>
<g>
	<path d="M451.844,138.166h3.648c0.898,0,1.607,0.248,2.057,0.697c0.357,0.358,0.539,0.797,0.539,1.335v0.023
		c0,0.886-0.473,1.38-1.033,1.694c0.91,0.349,1.471,0.875,1.471,1.931v0.023c0,1.437-1.168,2.156-2.941,2.156h-3.74V138.166z
		 M455.123,141.343c0.764,0,1.246-0.247,1.246-0.831v-0.021c0-0.517-0.404-0.81-1.133-0.81h-1.709v1.662H455.123z M455.584,144.51
		c0.764,0,1.223-0.27,1.223-0.854v-0.021c0-0.528-0.393-0.854-1.279-0.854h-2v1.729H455.584z"/>
	<path d="M459.562,141.725h3.459v1.64h-3.459V141.725z"/>
	<path d="M464.389,145.228l0.908-1.314c0.574,0.46,1.057,0.674,1.719,0.674c0.965,0,1.482-0.729,1.594-1.785
		c-0.381,0.325-0.908,0.539-1.594,0.539c-1.707,0-2.807-0.943-2.807-2.537v-0.023c0-1.582,1.223-2.75,2.998-2.75
		c1.055,0,1.672,0.257,2.268,0.853c0.562,0.562,0.932,1.416,0.932,2.965v0.021c0,2.55-1.201,4.29-3.436,4.29
		C465.824,146.161,465.051,145.778,464.389,145.228z M468.645,140.737v-0.021c0-0.697-0.518-1.202-1.383-1.202
		c-0.852,0-1.336,0.494-1.336,1.189v0.023c0,0.695,0.518,1.179,1.369,1.179C468.15,141.905,468.645,141.411,468.645,140.737z"/>
</g>
<g>
	<path d="M449.826,200.305h3.648c0.898,0,1.605,0.248,2.055,0.697c0.359,0.358,0.539,0.797,0.539,1.335v0.023
		c0,0.887-0.471,1.38-1.033,1.694c0.91,0.349,1.471,0.877,1.471,1.931v0.023c0,1.437-1.168,2.156-2.941,2.156h-3.738V200.305z
		 M453.104,203.482c0.764,0,1.248-0.246,1.248-0.831v-0.021c0-0.517-0.406-0.809-1.135-0.809h-1.707v1.662H453.104z
		 M453.564,206.649c0.764,0,1.223-0.269,1.223-0.854v-0.021c0-0.528-0.393-0.854-1.279-0.854h-1.998v1.729H453.564z"/>
	<path d="M457.545,203.864h3.457v1.64h-3.457V203.864z"/>
	<path d="M463.223,202l-1.369,0.337l-0.361-1.414l2.258-0.674h1.18v7.915h-1.707V202z"/>
	<path d="M466.463,206.009v-0.023c0-0.954,0.439-1.516,1.27-1.897c-0.605-0.371-1-0.876-1-1.717v-0.023
		c0-1.202,1.102-2.155,2.764-2.155c1.66,0,2.762,0.943,2.762,2.155v0.023c0,0.841-0.393,1.346-1,1.717
		c0.797,0.415,1.27,0.921,1.27,1.853v0.023c0,1.458-1.291,2.312-3.031,2.312S466.463,207.378,466.463,206.009z M470.854,205.874
		v-0.021c0-0.606-0.572-0.966-1.357-0.966s-1.359,0.36-1.359,0.966v0.021c0,0.54,0.506,0.977,1.359,0.977
		S470.854,206.424,470.854,205.874z M470.617,202.562v-0.023c0-0.481-0.414-0.92-1.121-0.92s-1.123,0.426-1.123,0.909v0.023
		c0,0.549,0.438,0.965,1.123,0.965S470.617,203.111,470.617,202.562z"/>
</g>
<g>
	<path d="M493.531,138.166h3.648c0.898,0,1.605,0.248,2.055,0.697c0.359,0.358,0.539,0.797,0.539,1.335v0.023
		c0,0.886-0.471,1.38-1.033,1.694c0.91,0.349,1.473,0.875,1.473,1.931v0.023c0,1.437-1.168,2.156-2.943,2.156h-3.738V138.166z
		 M496.811,141.343c0.762,0,1.246-0.247,1.246-0.831v-0.021c0-0.517-0.404-0.81-1.135-0.81h-1.707v1.662H496.811z M497.27,144.51
		c0.764,0,1.225-0.27,1.225-0.854v-0.021c0-0.528-0.393-0.854-1.281-0.854h-1.998v1.729H497.27z"/>
	<path d="M501.25,141.725h3.457v1.64h-3.457V141.725z"/>
	<path d="M506.928,139.861l-1.369,0.337l-0.359-1.414l2.256-0.674h1.18v7.915h-1.707V139.861z"/>
	<path d="M510.271,142.119v-0.023c0-2.279,1.414-4.064,3.502-4.064c2.078,0,3.48,1.762,3.48,4.042v0.022
		c0,2.279-1.402,4.065-3.502,4.065S510.271,144.397,510.271,142.119z M515.48,142.119v-0.023c0-1.427-0.697-2.504-1.729-2.504
		c-1.033,0-1.707,1.045-1.707,2.482v0.022c0,1.437,0.684,2.503,1.729,2.503S515.48,143.543,515.48,142.119z"/>
</g>
<g>
	<path d="M494.154,200.305h3.648c0.898,0,1.607,0.248,2.057,0.697c0.357,0.358,0.537,0.797,0.537,1.335v0.023
		c0,0.887-0.471,1.38-1.031,1.694c0.908,0.349,1.471,0.877,1.471,1.931v0.023c0,1.437-1.168,2.156-2.941,2.156h-3.74V200.305z
		 M497.434,203.482c0.764,0,1.246-0.246,1.246-0.831v-0.021c0-0.517-0.404-0.809-1.133-0.809h-1.709v1.662H497.434z
		 M497.895,206.649c0.762,0,1.223-0.269,1.223-0.854v-0.021c0-0.528-0.393-0.854-1.279-0.854h-2v1.729H497.895z"/>
	<path d="M501.873,203.864h3.459v1.64h-3.459V203.864z"/>
	<path d="M507.553,202l-1.371,0.337l-0.359-1.414l2.258-0.674h1.178v7.915h-1.705V202z"/>
	<path d="M514.746,201.799h-3.695v-1.494h5.66v1.303l-3.525,6.557h-1.955L514.746,201.799z"/>
</g>
<g>
	<path d="M539.527,138.166h3.648c0.898,0,1.605,0.248,2.057,0.697c0.357,0.358,0.537,0.797,0.537,1.335v0.023
		c0,0.886-0.471,1.38-1.031,1.694c0.908,0.349,1.471,0.875,1.471,1.931v0.023c0,1.437-1.168,2.156-2.943,2.156h-3.738V138.166z
		 M542.807,141.343c0.764,0,1.246-0.247,1.246-0.831v-0.021c0-0.517-0.404-0.81-1.135-0.81h-1.707v1.662H542.807z M543.266,144.51
		c0.764,0,1.225-0.27,1.225-0.854v-0.021c0-0.528-0.393-0.854-1.281-0.854h-1.998v1.729H543.266z"/>
	<path d="M547.246,141.725h3.457v1.64h-3.457V141.725z"/>
	<path d="M552.924,139.861l-1.369,0.337l-0.359-1.414l2.258-0.674h1.178v7.915h-1.707V139.861z"/>
	<path d="M557.66,139.861l-1.369,0.337l-0.361-1.414l2.258-0.674h1.178v7.915h-1.705V139.861z"/>
</g>
<g>
	<path d="M538.182,200.305h3.648c0.898,0,1.605,0.248,2.055,0.697c0.359,0.358,0.539,0.797,0.539,1.335v0.023
		c0,0.887-0.471,1.38-1.033,1.694c0.91,0.349,1.471,0.877,1.471,1.931v0.023c0,1.437-1.168,2.156-2.941,2.156h-3.738V200.305z
		 M541.461,203.482c0.762,0,1.246-0.246,1.246-0.831v-0.021c0-0.517-0.406-0.809-1.135-0.809h-1.707v1.662H541.461z M541.92,206.649
		c0.764,0,1.223-0.269,1.223-0.854v-0.021c0-0.528-0.391-0.854-1.279-0.854h-1.998v1.729H541.92z"/>
	<path d="M545.9,203.864h3.457v1.64H545.9V203.864z"/>
	<path d="M551.578,202l-1.369,0.337l-0.359-1.414l2.256-0.674h1.18v7.915h-1.707V202z"/>
	<path d="M555.854,207.457c-0.572-0.573-0.934-1.415-0.934-2.975v-0.023c0-2.425,1.102-4.289,3.447-4.289
		c1.066,0,1.764,0.314,2.459,0.863l-0.91,1.337c-0.516-0.394-0.93-0.629-1.604-0.629c-0.979,0-1.471,0.786-1.584,1.819
		c0.393-0.259,0.854-0.505,1.629-0.505c1.559,0,2.762,0.865,2.762,2.503v0.023c0,1.605-1.291,2.717-2.998,2.717
		C557.1,208.3,556.402,208.008,555.854,207.457z M559.4,205.661v-0.023c0-0.662-0.516-1.145-1.369-1.145s-1.348,0.471-1.348,1.134
		v0.021c0,0.663,0.516,1.168,1.369,1.168S559.4,206.335,559.4,205.661z"/>
</g>
<g>
	<path d="M141.01,295.727v-0.023c0-2.234,1.684-4.063,4.098-4.063c1.482,0,2.37,0.494,3.099,1.212l-1.1,1.268
		c-0.606-0.55-1.224-0.887-2.01-0.887c-1.325,0-2.279,1.1-2.279,2.448v0.021c0,1.348,0.931,2.47,2.279,2.47
		c0.898,0,1.448-0.358,2.065-0.92l1.102,1.111c-0.809,0.865-1.708,1.405-3.223,1.405C142.728,299.77,141.01,297.983,141.01,295.727z
		"/>
	<path d="M149.145,295.333h3.458v1.64h-3.458V295.333z"/>
	<path d="M153.644,298.589l1.043-1.247c0.596,0.54,1.18,0.854,1.875,0.854c0.808,0,1.314-0.393,1.314-1.089v-0.021
		c0-0.674-0.572-1.068-1.392-1.068c-0.494,0-0.943,0.135-1.314,0.292l-0.999-0.662l0.225-3.874h4.827v1.516h-3.345l-0.091,1.358
		c0.315-0.078,0.596-0.134,1.034-0.134c1.526,0,2.751,0.74,2.751,2.514v0.023c0,1.662-1.18,2.718-2.986,2.718
		C155.328,299.77,154.408,299.32,153.644,298.589z"/>
</g>
<g>
	<path d="M184.581,295.726v-0.023c0-2.234,1.684-4.063,4.098-4.063c1.482,0,2.37,0.494,3.099,1.212l-1.101,1.268
		c-0.606-0.549-1.223-0.886-2.009-0.886c-1.325,0-2.279,1.1-2.279,2.446v0.023c0,1.348,0.931,2.47,2.279,2.47
		c0.898,0,1.448-0.358,2.065-0.92l1.102,1.111c-0.809,0.864-1.708,1.404-3.224,1.404
		C186.298,299.768,184.581,297.981,184.581,295.726z"/>
	<path d="M192.715,295.332h3.458v1.64h-3.458V295.332z"/>
	<path d="M198.27,298.925c-0.572-0.572-0.933-1.414-0.933-2.974v-0.023c0-2.425,1.101-4.288,3.447-4.288
		c1.066,0,1.763,0.314,2.459,0.863l-0.909,1.337c-0.517-0.394-0.933-0.629-1.605-0.629c-0.977,0-1.471,0.787-1.583,1.819
		c0.393-0.258,0.853-0.505,1.628-0.505c1.561,0,2.762,0.865,2.762,2.504v0.023c0,1.605-1.291,2.717-2.998,2.717
		C199.516,299.768,198.819,299.476,198.27,298.925z M201.817,297.129v-0.023c0-0.662-0.516-1.145-1.37-1.145
		c-0.853,0-1.346,0.471-1.346,1.134v0.022c0,0.663,0.515,1.167,1.369,1.167C201.323,298.285,201.817,297.803,201.817,297.129z"/>
</g>
<g>
	<path d="M228.796,295.726v-0.023c0-2.234,1.683-4.063,4.098-4.063c1.481,0,2.37,0.494,3.099,1.212l-1.1,1.268
		c-0.606-0.549-1.223-0.886-2.009-0.886c-1.325,0-2.279,1.1-2.279,2.446v0.023c0,1.348,0.931,2.47,2.279,2.47
		c0.898,0,1.448-0.358,2.065-0.92l1.102,1.111c-0.81,0.864-1.708,1.404-3.224,1.404
		C230.514,299.768,228.796,297.981,228.796,295.726z"/>
	<path d="M236.931,295.332h3.458v1.64h-3.458V295.332z"/>
	<path d="M244.955,293.267h-3.694v-1.494h5.66v1.303l-3.525,6.557h-1.954L244.955,293.267z"/>
</g>
<g>
	<path d="M272.26,295.726v-0.023c0-2.234,1.683-4.063,4.098-4.063c1.481,0,2.369,0.494,3.099,1.212l-1.1,1.268
		c-0.606-0.549-1.223-0.886-2.01-0.886c-1.325,0-2.279,1.1-2.279,2.446v0.023c0,1.348,0.931,2.47,2.279,2.47
		c0.899,0,1.448-0.358,2.065-0.92l1.101,1.111c-0.809,0.864-1.708,1.404-3.223,1.404C273.977,299.768,272.26,297.981,272.26,295.726
		z"/>
	<path d="M280.394,295.332h3.458v1.64h-3.458V295.332z"/>
	<path d="M284.915,297.477v-0.023c0-0.954,0.438-1.516,1.27-1.897c-0.606-0.371-1-0.875-1-1.717v-0.023
		c0-1.202,1.102-2.156,2.763-2.156c1.66,0,2.762,0.943,2.762,2.156v0.023c0,0.842-0.394,1.347-1,1.717
		c0.797,0.416,1.27,0.921,1.27,1.853v0.023c0,1.459-1.291,2.313-3.031,2.313C286.206,299.745,284.915,298.846,284.915,297.477z
		 M289.305,297.342v-0.022c0-0.606-0.573-0.966-1.357-0.966c-0.786,0-1.359,0.36-1.359,0.966v0.022c0,0.54,0.505,0.977,1.359,0.977
		C288.8,298.319,289.305,297.893,289.305,297.342z M289.069,294.03v-0.023c0-0.482-0.415-0.92-1.122-0.92
		c-0.708,0-1.123,0.426-1.123,0.91v0.023c0,0.549,0.437,0.965,1.123,0.965C288.632,294.984,289.069,294.58,289.069,294.03z"/>
</g>
<g>
	<path d="M315.831,295.726v-0.023c0-2.234,1.684-4.063,4.098-4.063c1.482,0,2.37,0.494,3.099,1.212l-1.101,1.268
		c-0.606-0.549-1.223-0.886-2.009-0.886c-1.325,0-2.279,1.1-2.279,2.446v0.023c0,1.348,0.931,2.47,2.279,2.47
		c0.898,0,1.448-0.358,2.065-0.92l1.102,1.111c-0.809,0.864-1.708,1.404-3.223,1.404
		C317.548,299.768,315.831,297.981,315.831,295.726z"/>
	<path d="M323.965,295.332h3.458v1.64h-3.458V295.332z"/>
	<path d="M328.79,298.835l0.91-1.314c0.574,0.46,1.056,0.674,1.719,0.674c0.965,0,1.481-0.729,1.594-1.785
		c-0.381,0.325-0.909,0.539-1.594,0.539c-1.707,0-2.807-0.943-2.807-2.538v-0.023c0-1.583,1.223-2.75,2.997-2.75
		c1.056,0,1.673,0.257,2.268,0.853c0.562,0.562,0.933,1.416,0.933,2.965v0.021c0,2.55-1.202,4.29-3.436,4.29
		C330.227,299.768,329.453,299.385,328.79,298.835z M333.046,294.344v-0.022c0-0.697-0.517-1.201-1.382-1.201
		c-0.853,0-1.336,0.494-1.336,1.189v0.023c0,0.695,0.517,1.179,1.37,1.179C332.552,295.512,333.046,295.018,333.046,294.344z"/>
</g>
<g>
	<path d="M360.346,295.726v-0.023c0-2.234,1.684-4.063,4.098-4.063c1.482,0,2.37,0.494,3.099,1.212l-1.1,1.268
		c-0.606-0.549-1.224-0.886-2.01-0.886c-1.325,0-2.279,1.1-2.279,2.446v0.023c0,1.348,0.931,2.47,2.279,2.47
		c0.898,0,1.448-0.358,2.065-0.92l1.102,1.111c-0.809,0.864-1.708,1.404-3.223,1.404
		C362.063,299.768,360.346,297.981,360.346,295.726z"/>
	<path d="M368.48,295.332h3.458v1.64h-3.458V295.332z"/>
	<path d="M374.158,293.469l-1.369,0.337l-0.36-1.414l2.257-0.674h1.179v7.915h-1.707V293.469z"/>
	<path d="M377.501,295.726v-0.023c0-2.279,1.414-4.063,3.503-4.063c2.077,0,3.48,1.762,3.48,4.041v0.023
		c0,2.279-1.403,4.065-3.503,4.065C378.882,299.768,377.501,298.005,377.501,295.726z M382.711,295.726v-0.023
		c0-1.426-0.697-2.503-1.729-2.503c-1.033,0-1.707,1.043-1.707,2.48v0.023c0,1.438,0.685,2.503,1.729,2.503
		C382.048,298.206,382.711,297.151,382.711,295.726z"/>
</g>
<g>
	<path d="M406.342,295.726v-0.023c0-2.234,1.684-4.063,4.098-4.063c1.482,0,2.37,0.494,3.099,1.212l-1.1,1.268
		c-0.606-0.549-1.224-0.886-2.01-0.886c-1.325,0-2.279,1.1-2.279,2.446v0.023c0,1.348,0.931,2.47,2.279,2.47
		c0.898,0,1.448-0.358,2.065-0.92l1.102,1.111c-0.809,0.864-1.708,1.404-3.223,1.404
		C408.06,299.768,406.342,297.981,406.342,295.726z"/>
	<path d="M414.477,295.332h3.458v1.64h-3.458V295.332z"/>
	<path d="M420.155,293.469l-1.369,0.337l-0.36-1.414l2.257-0.674h1.179v7.915h-1.707V293.469z"/>
	<path d="M424.889,293.469l-1.369,0.337l-0.359-1.414l2.258-0.674h1.178v7.915h-1.707V293.469z"/>
</g>
<g>
	<path d="M445.949,295.726v-0.023c0-2.234,1.684-4.063,4.098-4.063c1.48,0,2.369,0.494,3.098,1.212l-1.1,1.268
		c-0.605-0.549-1.223-0.886-2.01-0.886c-1.324,0-2.279,1.1-2.279,2.446v0.023c0,1.348,0.932,2.47,2.279,2.47
		c0.898,0,1.447-0.358,2.064-0.92l1.102,1.111c-0.809,0.864-1.707,1.404-3.223,1.404
		C447.666,299.768,445.949,297.981,445.949,295.726z"/>
	<path d="M454.082,295.332h3.459v1.64h-3.459V295.332z"/>
	<path d="M459.762,293.469l-1.371,0.337l-0.359-1.414l2.258-0.674h1.178v7.915h-1.705V293.469z"/>
	<path d="M463.049,298.263l2.615-2.145c0.977-0.808,1.359-1.235,1.359-1.886c0-0.662-0.439-1.022-1.057-1.022
		c-0.605,0-1.021,0.337-1.605,1.056l-1.213-0.977c0.775-1.056,1.527-1.628,2.932-1.628c1.627,0,2.705,0.954,2.705,2.425v0.023
		c0,1.314-0.674,1.965-2.066,3.042l-1.279,0.989h3.424v1.493h-5.814V298.263z"/>
</g>
<g>
	<path d="M493.762,295.726v-0.023c0-2.234,1.684-4.063,4.098-4.063c1.48,0,2.369,0.494,3.098,1.212l-1.1,1.268
		c-0.605-0.549-1.223-0.886-2.01-0.886c-1.324,0-2.279,1.1-2.279,2.446v0.023c0,1.348,0.932,2.47,2.279,2.47
		c0.898,0,1.447-0.358,2.064-0.92l1.102,1.111c-0.809,0.864-1.707,1.404-3.223,1.404
		C495.479,299.768,493.762,297.981,493.762,295.726z"/>
	<path d="M501.895,295.332h3.459v1.64h-3.459V295.332z"/>
	<path d="M507.574,293.469l-1.369,0.337l-0.361-1.414l2.258-0.674h1.178v7.915h-1.705V293.469z"/>
	<path d="M510.736,298.409l1.191-1.134c0.537,0.606,1.1,0.943,1.896,0.943c0.65,0,1.111-0.371,1.111-0.955v-0.022
		c0-0.64-0.572-1-1.537-1h-0.719l-0.27-1.1l1.875-1.886h-3.09v-1.482h5.312v1.303l-1.988,1.897c1.068,0.18,2.111,0.74,2.111,2.2
		v0.023c0,1.482-1.078,2.571-2.83,2.571C512.387,299.768,511.41,299.206,510.736,298.409z"/>
</g>
<g>
	<path d="M537.648,295.726v-0.023c0-2.234,1.684-4.063,4.098-4.063c1.48,0,2.369,0.494,3.098,1.212l-1.1,1.268
		c-0.605-0.549-1.223-0.886-2.01-0.886c-1.324,0-2.279,1.1-2.279,2.446v0.023c0,1.348,0.932,2.47,2.279,2.47
		c0.898,0,1.449-0.358,2.064-0.92l1.102,1.111c-0.809,0.864-1.707,1.404-3.223,1.404
		C539.365,299.768,537.648,297.981,537.648,295.726z"/>
	<path d="M545.783,295.332h3.457v1.64h-3.457V295.332z"/>
	<path d="M551.461,293.469l-1.369,0.337l-0.361-1.414l2.258-0.674h1.178v7.915h-1.705V293.469z"/>
	<path d="M558.666,297.937h-3.84l-0.281-1.223l4.311-4.996h1.461v4.816h1.055v1.403h-1.055v1.696h-1.65V297.937z M558.666,296.534
		v-2.448l-2.09,2.448H558.666z"/>
</g>
<path fill="#CFD1D0" stroke="#000000" stroke-miterlimit="10" d="M815.535,140.267l-51.799,22.986c0,0-59.85,0-75.002,0
	c-15.156,0-13.604-12.823-13.604-12.823s0-11.27,0-29.146c0-29.232-25.648-26.813-25.648-26.813s-161.453,0-302.288,0
	c-14.883,0-29.539,0-43.748,0c-15.18,0-29.85,0-43.75,0c-15.695,0-30.399,0-43.75,0c-17.067,0-31.91,0-43.75,0
	c-17.448,0-28.383,0-30.25,0c-6.252,0-10.609-1.234-13.5-2.563c-3.399-1.564-4.766-3.267-4.766-3.267S79.765,51.332,64.222,38.119
	c-10.769-9.154-19.857-11.031-24.426-11.322c-2.024-0.129-3.167,0.053-3.167,0.053H1.894v24.873c0,0,21.213,0,32.792,0
	c1.875,0,3.567,0.151,5.11,0.421c14.654,2.553,15.091,16.015,15.099,17.339v0.116V94.47v43.26v61.902v3.012v2.154v1.205
	c0,2.173,0,8.198,0,24.708c0,24.41,28.536,26.837,28.536,26.837h1.244v0.089h44.27h44.267h44.27h44.267h44.266h44.271h44.267h44.266
	h44.27h44.268h44.27h44.266h34.393c9.83,1.107,9.877,13.113,9.877,13.113v70.879h15.256c0-24.142,0-131.856,0-142.674
	c0-12.192,12.531-10.839,12.531-10.839h74.842l52.746,24.302l16.832-35.944L815.535,140.267z M67.32,83.977V68.229
	c0,0-0.468-11.075-5.139-15.749L89.056,75.5c0,0-6.78-1.637-12.155,0.934C71.529,79.005,67.32,83.977,67.32,83.977z
	 M341.633,175.091v0.002v25.893v19.007c0,7.892,0,15.67,0,17.605c0,4.244-3.864,3.603-3.864,3.603s-16.37,0-40.807,0
	c-13.018,0-28.326,0-44.668,0c-14.374,0-29.546,0-44.67,0c-15.232,0-30.41,0-44.667,0c-16.602,0-31.95,0-44.667,0
	c-17.01,0-29.306,0-33.615,0c-0.646,0-1.125,0-1.396,0c-9.64,0-11.359-12.444-11.359-12.444v-22.753c0,0,0-1.21,0-3.359
	c0-0.858,0-1.867,0-3.012c0-5.589,0-14.398,0-24.539v-0.002c0-22.247,0-50.906,0-66.144c0-5.31,0-8.997,0-10.204
	c0-1.442,0.262-2.885,0.75-4.273c2.003-5.713,7.908-10.493,16.036-10.493c4.322,0,10.412,2.978,19.075,10.493
	c2.403,2.084,5.004,4.517,7.822,7.334c6.988,6.991,26.342,7.143,26.342,7.143s8.125,0,21.013,0c11.771,0,27.511,0,44.667,0
	c14.398,0,29.791,0,44.67,0c16.139,0,31.665,0,44.668,0c18.634,0,32.072,0,34.628,0c10.104,0,10.042,8.45,10.042,8.45V175.091z
	 M660.16,175.091v0.002v1.765c0,0,0,33.95,0,48.172c0,14.226-13.533,16.207-13.533,16.207H616.02h-44.141h-44.143h-44.139h-44.141
	h-44.142h-44.14v-12.482v-8.761v-19.007v-25.893v-0.002v-66.144c0,0,17.557,0,44.14,0c12.913,0,27.946,0,44.142,0
	c14.055,0,28.98,0,44.141,0c14.689,0,29.594,0,44.139,0c15.346,0,30.289,0,44.143,0c16.691,0,31.801,0,44.141,0
	c18.533,0,30.816,0,32.781,0c10.199,0,11.359,11.359,11.359,11.359V175.091z M780.424,183.986c-2.971,0-5.559-1.648-6.9-4.079
	c-2.463-2.459-6.283-2.181-6.283-2.181s-75.402,0-82.178,0s-9.133,4.714-9.133,4.714v-6.333v-6.333c0,0,2.357,4.712,9.133,4.712
	s82.178,0,82.178,0s3.82,0.281,6.283-2.182c1.342-2.43,3.93-4.079,6.9-4.079c4.352,0,7.879,3.529,7.879,7.881
	C788.303,180.46,784.775,183.986,780.424,183.986z"/>
<rect x="571.879" y="175.093" fill="#E5DA3B" stroke="#000000" stroke-miterlimit="10" width="44.141" height="66.143"/>
<path fill="#E5DA3B" stroke="#000000" stroke-miterlimit="10" d="M616.02,241.236h30.607c0,0,13.533-1.981,13.533-16.207
	c0-14.222,0-48.172,0-48.172v-1.765H616.02V241.236z"/>
<path fill="#E5DA3B" stroke="#000000" stroke-miterlimit="10" d="M616.02,175.091v-66.144c-12.34,0-27.449,0-44.141,0v66.144H616.02
	z"/>
<path fill="#E5DA3B" stroke="#000000" stroke-miterlimit="10" d="M648.801,108.947c-1.965,0-14.248,0-32.781,0v66.144h44.141
	v-54.785C660.16,120.306,659,108.947,648.801,108.947z"/>
<g>
	<path d="M582.861,138.166h3.648c0.898,0,1.605,0.248,2.055,0.697c0.359,0.358,0.539,0.797,0.539,1.335v0.023
		c0,0.886-0.471,1.38-1.033,1.694c0.91,0.349,1.471,0.875,1.471,1.931v0.023c0,1.437-1.166,2.156-2.941,2.156h-3.738V138.166z
		 M586.141,141.343c0.762,0,1.246-0.247,1.246-0.831v-0.021c0-0.517-0.404-0.81-1.135-0.81h-1.707v1.662H586.141z M586.6,144.51
		c0.764,0,1.225-0.27,1.225-0.854v-0.021c0-0.528-0.393-0.854-1.281-0.854h-1.998v1.729H586.6z"/>
	<path d="M590.58,141.725h3.457v1.64h-3.457V141.725z"/>
	<path d="M596.258,139.861l-1.369,0.337l-0.359-1.414l2.256-0.674h1.18v7.915h-1.707V139.861z"/>
	<path d="M599.545,144.656l2.615-2.145c0.979-0.808,1.359-1.235,1.359-1.886c0-0.662-0.439-1.022-1.055-1.022
		c-0.607,0-1.023,0.337-1.607,1.056l-1.213-0.977c0.775-1.055,1.529-1.628,2.932-1.628c1.629,0,2.705,0.954,2.705,2.425v0.023
		c0,1.314-0.674,1.965-2.064,3.042l-1.281,0.989h3.424v1.493h-5.814V144.656z"/>
</g>
<g>
	<path d="M582.822,200.305h3.648c0.898,0,1.605,0.248,2.055,0.697c0.359,0.358,0.539,0.797,0.539,1.335v0.023
		c0,0.887-0.471,1.38-1.033,1.694c0.91,0.349,1.471,0.877,1.471,1.931v0.023c0,1.437-1.168,2.156-2.941,2.156h-3.738V200.305z
		 M586.102,203.482c0.762,0,1.246-0.246,1.246-0.831v-0.021c0-0.517-0.406-0.809-1.135-0.809h-1.707v1.662H586.102z
		 M586.561,206.649c0.764,0,1.223-0.269,1.223-0.854v-0.021c0-0.528-0.391-0.854-1.279-0.854h-1.998v1.729H586.561z"/>
	<path d="M590.541,203.864h3.457v1.64h-3.457V203.864z"/>
	<path d="M596.219,202l-1.369,0.337l-0.359-1.414l2.256-0.674h1.18v7.915h-1.707V202z"/>
	<path d="M599.438,207.12l1.045-1.247c0.594,0.54,1.18,0.854,1.875,0.854c0.807,0,1.314-0.393,1.314-1.089v-0.022
		c0-0.674-0.572-1.067-1.393-1.067c-0.494,0-0.943,0.135-1.314,0.292l-0.998-0.662l0.225-3.874h4.826v1.516h-3.346l-0.09,1.358
		c0.314-0.079,0.596-0.134,1.033-0.134c1.527,0,2.752,0.74,2.752,2.514v0.023c0,1.662-1.18,2.717-2.986,2.717
		C601.121,208.3,600.201,207.851,599.438,207.12z"/>
</g>
<g>
	<path d="M626.949,138.166h3.648c0.898,0,1.605,0.248,2.057,0.697c0.357,0.358,0.537,0.797,0.537,1.335v0.023
		c0,0.886-0.471,1.38-1.031,1.694c0.908,0.349,1.471,0.875,1.471,1.931v0.023c0,1.437-1.168,2.156-2.943,2.156h-3.738V138.166z
		 M630.229,141.343c0.764,0,1.246-0.247,1.246-0.831v-0.021c0-0.517-0.404-0.81-1.135-0.81h-1.707v1.662H630.229z M630.688,144.51
		c0.764,0,1.225-0.27,1.225-0.854v-0.021c0-0.528-0.393-0.854-1.281-0.854h-1.998v1.729H630.688z"/>
	<path d="M634.668,141.725h3.457v1.64h-3.457V141.725z"/>
	<path d="M640.346,139.861l-1.369,0.337l-0.359-1.414l2.258-0.674h1.178v7.915h-1.707V139.861z"/>
	<path d="M643.51,144.802l1.189-1.134c0.539,0.606,1.102,0.943,1.898,0.943c0.65,0,1.111-0.371,1.111-0.956v-0.021
		c0-0.64-0.574-1-1.539-1h-0.717l-0.27-1.1l1.873-1.886h-3.088v-1.482h5.312v1.303l-1.988,1.897c1.068,0.18,2.111,0.74,2.111,2.2
		v0.023c0,1.482-1.078,2.571-2.83,2.571C645.16,146.161,644.184,145.599,643.51,144.802z"/>
</g>
<g>
	<path d="M626.568,200.305h3.648c0.898,0,1.605,0.248,2.055,0.697c0.359,0.358,0.539,0.797,0.539,1.335v0.023
		c0,0.887-0.471,1.38-1.033,1.694c0.91,0.349,1.471,0.877,1.471,1.931v0.023c0,1.437-1.168,2.156-2.941,2.156h-3.738V200.305z
		 M629.848,203.482c0.762,0,1.246-0.246,1.246-0.831v-0.021c0-0.517-0.406-0.809-1.135-0.809h-1.707v1.662H629.848z
		 M630.307,206.649c0.764,0,1.223-0.269,1.223-0.854v-0.021c0-0.528-0.391-0.854-1.279-0.854h-1.998v1.729H630.307z"/>
	<path d="M634.287,203.864h3.457v1.64h-3.457V203.864z"/>
	<path d="M639.965,202l-1.369,0.337l-0.359-1.414l2.256-0.674h1.18v7.915h-1.707V202z"/>
	<path d="M647.17,206.469h-3.84l-0.281-1.223l4.311-4.996h1.461v4.816h1.057v1.403h-1.057v1.696h-1.65V206.469z M647.17,205.065
		v-2.448l-2.088,2.448H647.17z"/>
</g>
<polygon fill="#7DD3F7" stroke="#000000" stroke-miterlimit="10" points="571.879,175.091 527.736,175.091 483.598,175.091 
	439.457,175.091 395.315,175.091 351.176,175.091 351.176,175.093 395.315,175.093 439.457,175.093 483.598,175.093 
	527.736,175.093 571.879,175.093 616.02,175.093 660.16,175.093 660.16,175.091 616.02,175.091 "/>
<g>
	<path d="M24.962,99.014v-0.023c0-2.234,1.683-4.063,4.097-4.063c1.482,0,2.37,0.494,3.099,1.212l-1.1,1.268
		c-0.606-0.55-1.224-0.887-2.01-0.887c-1.325,0-2.279,1.1-2.279,2.447v0.023c0,1.348,0.931,2.47,2.279,2.47
		c0.899,0,1.448-0.358,2.065-0.92l1.102,1.111c-0.809,0.865-1.708,1.404-3.223,1.404C26.68,103.056,24.962,101.27,24.962,99.014z"/>
	<path d="M33.097,98.62h3.458v1.64h-3.458V98.62z"/>
	<path d="M38.775,96.757l-1.37,0.337l-0.36-1.415l2.257-0.674h1.179v7.915h-1.706V96.757z"/>
</g>
<g>
	<path d="M21.928,171.185v-0.023c0-2.234,1.684-4.064,4.098-4.064c1.482,0,2.37,0.494,3.099,1.213l-1.1,1.268
		c-0.606-0.549-1.223-0.886-2.009-0.886c-1.325,0-2.279,1.1-2.279,2.447v0.023c0,1.348,0.931,2.47,2.279,2.47
		c0.898,0,1.448-0.359,2.065-0.92l1.102,1.111c-0.809,0.865-1.708,1.404-3.224,1.404C23.646,175.227,21.928,173.44,21.928,171.185z"
		/>
	<path d="M30.062,170.791h3.458v1.64h-3.458V170.791z"/>
	<path d="M34.63,173.722l2.616-2.145c0.977-0.808,1.358-1.235,1.358-1.887c0-0.662-0.438-1.021-1.055-1.021
		c-0.606,0-1.022,0.337-1.606,1.056l-1.212-0.977c0.775-1.056,1.528-1.628,2.931-1.628c1.628,0,2.705,0.954,2.705,2.425v0.023
		c0,1.314-0.674,1.965-2.065,3.042l-1.28,0.989h3.423v1.493H34.63V173.722z"/>
</g>
</svg>
