<?xml version="1.0" encoding="utf-8"?>
<!-- Generator: Adobe Illustrator 16.0.0, SVG Export Plug-In . SVG Version: 6.00 Build 0)  -->
<!DOCTYPE svg PUBLIC "-//W3C//DTD SVG 1.1//EN" "http://www.w3.org/Graphics/SVG/1.1/DTD/svg11.dtd">
<svg version="1.1" id="Layer_1" xmlns="http://www.w3.org/2000/svg" xmlns:xlink="http://www.w3.org/1999/xlink" x="0px" y="0px"
	 width="841.89px" height="353px" viewBox="0 0 841.89 353" enable-background="new 0 0 841.89 353" xml:space="preserve">
<g>
	<path fill="#54B687" stroke="#000000" stroke-miterlimit="10" d="M14.937,350.511c-4.18,0-7.848-1.644-10.326-4.635
		c-3.345-4.027-3.325-8.893-3.047-11.314V18.44c-0.278-2.42-0.298-7.287,3.047-11.314c2.479-2.989,6.146-4.636,10.326-4.636H755.5
		l3.811,0.837c0.854,0.396,8.446,4.107,12.024,13.048c1.864,4.659,50.514,114.506,69.104,156.441v7.371
		c-18.591,41.93-67.24,151.783-69.104,156.442c-3.578,8.938-11.171,12.652-12.024,13.045l-3.811,0.837H14.937z"/>
	<path fill="#54B687" stroke="#000000" stroke-miterlimit="10" d="M10.66,17.809v8.556h25.668c0,0,1.143-0.182,3.169-0.053V11.585
		H14.937C9.492,11.585,10.66,17.809,10.66,17.809z"/>
	<path fill="#0D78BD" stroke="#000000" stroke-miterlimit="10" d="M762.89,333.251c1.601-3.998,33.495-76.078,53.431-121.082
		l-0.044,0.096l-53.168-24.495h-74.906c0,0-12.541-1.354-12.541,10.848c0,10.827,0,118.638,0,142.801H755.5
		C755.5,341.418,760.555,339.086,762.89,333.251z"/>
	<rect x="571.781" y="257.347" fill="#FFFFFF" stroke="#000000" stroke-miterlimit="10" width="44.304" height="84.071"/>
	<path fill="#FFFFFF" stroke="#000000" stroke-miterlimit="10" d="M650.507,257.347h-34.422v84.071h44.307v-70.947
		C660.392,270.471,660.345,258.454,650.507,257.347z"/>
	<g>
		<path d="M582.394,295.473v-0.022c0-2.234,1.684-4.065,4.099-4.065c1.482,0,2.37,0.494,3.1,1.213l-1.101,1.269
			c-0.606-0.55-1.225-0.887-2.01-0.887c-1.326,0-2.28,1.101-2.28,2.448v0.022c0,1.348,0.933,2.471,2.28,2.471
			c0.898,0,1.448-0.359,2.066-0.921l1.1,1.112c-0.809,0.864-1.707,1.403-3.223,1.403
			C584.111,299.516,582.394,297.729,582.394,295.473z"/>
		<path d="M590.534,295.079h3.459v1.641h-3.459V295.079z"/>
		<path d="M596.217,293.216l-1.37,0.336l-0.359-1.414l2.258-0.674h1.179v7.917h-1.707V293.216z"/>
		<path d="M599.438,298.337l1.045-1.247c0.596,0.539,1.18,0.854,1.875,0.854c0.809,0,1.314-0.394,1.314-1.089v-0.023
			c0-0.674-0.572-1.066-1.393-1.066c-0.494,0-0.943,0.135-1.314,0.292l-0.999-0.663l0.225-3.874h4.829v1.517h-3.347l-0.09,1.358
			c0.314-0.079,0.595-0.135,1.033-0.135c1.527,0,2.751,0.741,2.751,2.516v0.022c0,1.662-1.179,2.718-2.986,2.718
			C601.124,299.516,600.202,299.066,599.438,298.337z"/>
	</g>
	<g>
		<path d="M626.521,295.473v-0.022c0-2.234,1.684-4.065,4.099-4.065c1.482,0,2.37,0.494,3.1,1.213l-1.101,1.269
			c-0.606-0.55-1.225-0.887-2.01-0.887c-1.326,0-2.28,1.101-2.28,2.448v0.022c0,1.348,0.933,2.471,2.28,2.471
			c0.898,0,1.448-0.359,2.066-0.921l1.1,1.112c-0.809,0.864-1.707,1.403-3.223,1.403
			C628.238,299.516,626.521,297.729,626.521,295.473z"/>
		<path d="M634.661,295.079h3.459v1.641h-3.459V295.079z"/>
		<path d="M640.344,293.216l-1.37,0.336l-0.359-1.414l2.258-0.674h1.179v7.917h-1.707V293.216z"/>
		<path d="M644.622,298.673c-0.573-0.572-0.933-1.414-0.933-2.976v-0.022c0-2.426,1.101-4.29,3.448-4.29
			c1.066,0,1.763,0.314,2.459,0.864l-0.91,1.337c-0.516-0.394-0.932-0.629-1.605-0.629c-0.977,0-1.471,0.786-1.584,1.819
			c0.394-0.258,0.854-0.506,1.629-0.506c1.561,0,2.763,0.865,2.763,2.505v0.022c0,1.605-1.292,2.718-2.999,2.718
			C645.868,299.516,645.172,299.224,644.622,298.673z M648.171,296.876v-0.021c0-0.663-0.518-1.146-1.371-1.146
			s-1.348,0.473-1.348,1.135v0.022c0,0.663,0.518,1.168,1.371,1.168S648.171,297.55,648.171,296.876z"/>
	</g>
	<path fill="#70CAF3" stroke="#000000" stroke-miterlimit="10" d="M649.705,94.044c0,0,25.67-2.422,25.67,26.836
		c0,17.892,0,29.171,0,29.171s-1.554,12.834,13.616,12.834c15.165,0,75.065,0,75.065,0l51.844-23.005
		C795.939,94.816,764.477,23.721,762.89,19.752c-2.335-5.837-7.39-8.167-7.39-8.167H347.159v82.458
		C488.112,94.044,649.705,94.044,649.705,94.044z"/>
	<polygon fill="#92D4F6" stroke="#000000" stroke-miterlimit="10" points="252.178,174.733 207.47,174.733 162.764,174.733 
		118.058,174.733 71.648,174.733 71.648,174.736 118.058,174.736 162.764,174.736 207.47,174.736 252.178,174.736 296.884,174.736 
		341.593,174.736 341.593,174.733 296.884,174.733 	"/>
	<path fill="#FFFFFF" stroke="#000000" stroke-miterlimit="10" d="M141.735,94.044c1.869,0,12.812,0,30.276,0V11.585h-43.788v79.893
		C131.117,92.809,135.478,94.044,141.735,94.044z"/>
	<path fill="#FFFFFF" stroke="#000000" stroke-miterlimit="10" d="M215.799,94.044V11.585h-43.788v82.458
		C183.862,94.044,198.717,94.044,215.799,94.044z"/>
	<path fill="#FFFFFF" stroke="#000000" stroke-miterlimit="10" d="M259.587,94.044V11.585h-43.788v82.458
		C229.162,94.044,243.878,94.044,259.587,94.044z"/>
	<path fill="#FFFFFF" stroke="#000000" stroke-miterlimit="10" d="M303.375,94.044V11.585h-43.788v82.458
		C273.499,94.044,288.181,94.044,303.375,94.044z"/>
	<path fill="#FFFFFF" stroke="#000000" stroke-miterlimit="10" d="M347.159,94.044V11.585h-43.785v82.458
		C317.596,94.044,332.264,94.044,347.159,94.044z"/>
	<path fill="#EBDB23" stroke="#000000" stroke-miterlimit="10" d="M162.764,240.897v-66.162h-44.706v66.162
		C130.787,240.897,146.148,240.897,162.764,240.897z"/>
	<path fill="#EBDB23" stroke="#000000" stroke-miterlimit="10" d="M207.47,240.897v-66.162h-44.706v66.162
		C177.034,240.897,192.225,240.897,207.47,240.897z"/>
	<rect x="84.415" y="257.347" fill="#FFFFFF" stroke="#000000" stroke-miterlimit="10" width="44.308" height="84.071"/>
	<rect x="128.722" y="257.347" fill="#FFFFFF" stroke="#000000" stroke-miterlimit="10" width="44.305" height="84.071"/>
	<rect x="173.027" y="257.347" fill="#FFFFFF" stroke="#000000" stroke-miterlimit="10" width="44.308" height="84.071"/>
	<rect x="217.335" y="257.347" fill="#FFFFFF" stroke="#000000" stroke-miterlimit="10" width="44.305" height="84.071"/>
	<rect x="261.64" y="257.347" fill="#FFFFFF" stroke="#000000" stroke-miterlimit="10" width="44.304" height="84.071"/>
	<rect x="305.944" y="257.347" fill="#FFFFFF" stroke="#000000" stroke-miterlimit="10" width="44.309" height="84.071"/>
	<rect x="350.252" y="257.347" fill="#FFFFFF" stroke="#000000" stroke-miterlimit="10" width="44.307" height="84.071"/>
	<rect x="394.559" y="257.347" fill="#FFFFFF" stroke="#000000" stroke-miterlimit="10" width="44.296" height="84.071"/>
	<rect x="438.855" y="257.347" fill="#FFFFFF" stroke="#000000" stroke-miterlimit="10" width="44.311" height="84.071"/>
	<rect x="483.166" y="257.347" fill="#FFFFFF" stroke="#000000" stroke-miterlimit="10" width="44.308" height="84.071"/>
	<rect x="527.474" y="257.347" fill="#FFFFFF" stroke="#000000" stroke-miterlimit="10" width="44.308" height="84.071"/>
	<path fill="#EBDB23" stroke="#000000" stroke-miterlimit="10" d="M252.178,240.897v-66.162H207.47v66.162
		C222.606,240.897,237.792,240.897,252.178,240.897z"/>
	<path fill="#EBDB23" stroke="#000000" stroke-miterlimit="10" d="M296.884,240.897v-66.162h-44.706v66.162
		C268.534,240.897,283.855,240.897,296.884,240.897z"/>
	<path fill="#EBDB23" stroke="#000000" stroke-miterlimit="10" d="M296.884,240.897c24.458,0,40.842,0,40.842,0
		s3.867,0.642,3.867-3.604c0-1.938,0-9.723,0-17.621v-19.023v-25.914h-44.708V240.897z"/>
	<polygon fill="#EBDB23" stroke="#000000" stroke-miterlimit="10" points="351.144,174.736 351.144,200.649 351.144,219.673 
		351.144,228.441 351.144,240.933 395.323,240.933 395.323,174.736 	"/>
	<rect x="395.323" y="174.736" fill="#EBDB23" stroke="#000000" stroke-miterlimit="10" width="44.172" height="66.197"/>
	<rect x="439.495" y="174.736" fill="#EBDB23" stroke="#000000" stroke-miterlimit="10" width="44.18" height="66.197"/>
	<rect x="483.675" y="174.736" fill="#EBDB23" stroke="#000000" stroke-miterlimit="10" width="44.181" height="66.197"/>
	<rect x="527.855" y="174.736" fill="#EBDB23" stroke="#000000" stroke-miterlimit="10" width="44.181" height="66.197"/>
	<path fill="#EBDB23" stroke="#000000" stroke-miterlimit="10" d="M395.323,108.533c-26.607,0-44.179,0-44.179,0v66.2h44.179
		V108.533z"/>
	<path fill="#EBDB23" stroke="#000000" stroke-miterlimit="10" d="M439.495,174.733v-66.2c-16.21,0-31.247,0-44.172,0v66.2H439.495z
		"/>
	<path fill="#EBDB23" stroke="#000000" stroke-miterlimit="10" d="M483.675,174.733v-66.2c-15.172,0-30.112,0-44.18,0v66.2H483.675z
		"/>
	<path fill="#EBDB23" stroke="#000000" stroke-miterlimit="10" d="M527.855,174.733v-66.2c-14.559,0-29.476,0-44.181,0v66.2H527.855
		z"/>
	<path fill="#EBDB23" stroke="#000000" stroke-miterlimit="10" d="M572.036,174.733v-66.2c-13.866,0-28.821,0-44.181,0v66.2H572.036
		z"/>
	<path fill="#EBDB23" stroke="#000000" stroke-miterlimit="10" d="M118.058,174.733v-66.2h-46.41c0,15.25,0,43.934,0,66.2H118.058z"
		/>
	<path fill="#EBDB23" stroke="#000000" stroke-miterlimit="10" d="M118.058,174.733h44.706v-66.2c-12.899,0-21.031,0-21.031,0
		h-23.675V174.733z"/>
	<path fill="#EBDB23" stroke="#000000" stroke-miterlimit="10" d="M207.47,174.733v-66.2c-17.171,0-32.925,0-44.706,0v66.2H207.47z"
		/>
	<path fill="#EBDB23" stroke="#000000" stroke-miterlimit="10" d="M252.178,174.733v-66.2c-14.893,0-30.298,0-44.708,0v66.2H252.178
		z"/>
	<path fill="#EBDB23" stroke="#000000" stroke-miterlimit="10" d="M296.884,174.733v-66.2c-13.015,0-28.554,0-44.706,0v66.2H296.884
		z"/>
	<path fill="#EBDB23" stroke="#000000" stroke-miterlimit="10" d="M341.593,174.733V116.99c0,0,0.062-8.457-10.051-8.457
		c-2.558,0-16.007,0-34.657,0v66.2H341.593z"/>
	<polygon fill="#FFFFFF" stroke="#000000" stroke-miterlimit="10" points="54.61,137.341 10.66,137.341 10.66,176.502 10.66,202.31 
		54.61,202.31 54.61,199.295 	"/>
	<path fill="#FFFFFF" stroke="#000000" stroke-miterlimit="10" d="M84.415,257.257H83.17c0,0-28.56-2.43-28.56-26.857
		c0-16.523,0-22.553,0-24.729v-1.205v-2.156H10.66v132.884v2.622c0.282,1.701,1.268,3.603,4.277,3.603h69.478v-84.071V257.257z"/>
	<path fill="#EBDB23" stroke="#000000" stroke-miterlimit="10" d="M71.648,174.736c0,10.149,0,18.966,0,24.559
		c0,1.146,0,2.156,0,3.015c0,2.15,0,3.361,0,3.361v22.773c0,0,1.72,12.453,11.369,12.453c0.272,0,0.75,0,1.397,0
		c4.312,0,16.619,0,33.643,0v-66.162H71.648z"/>
	<path fill="#FFFFFF" stroke="#000000" stroke-miterlimit="10" d="M63.944,37.644c15.557,13.224,59.509,50.565,59.509,50.565
		s1.368,1.704,4.771,3.27V11.585H39.498v14.727C44.07,26.603,53.166,28.481,63.944,37.644z"/>
	<path fill="#FFFFFF" stroke="#000000" stroke-miterlimit="10" d="M39.498,51.68c-1.544-0.27-3.237-0.421-5.114-0.421
		c-11.588,0-19.243,0-23.724,0v86.083h43.95V94.044V69.15v-0.116C54.602,67.709,54.164,54.235,39.498,51.68z"/>
	<path fill="#FFFFFF" stroke="#000000" stroke-miterlimit="10" d="M115.368,101.385c-2.82-2.82-5.423-5.255-7.829-7.341
		c-8.671-7.522-14.766-10.502-19.092-10.502c-8.134,0-14.045,4.784-16.049,10.502c-0.488,1.39-0.75,2.833-0.75,4.277
		c0,1.208,0,4.897,0,10.212h46.41h23.675C141.732,108.533,122.362,108.381,115.368,101.385z"/>
	<g>
		<path d="M33.729,295.473v-0.022c0-2.234,1.685-4.065,4.099-4.065c1.482,0,2.37,0.494,3.1,1.213l-1.101,1.269
			c-0.606-0.55-1.224-0.887-2.01-0.887c-1.325,0-2.28,1.101-2.28,2.448v0.022c0,1.348,0.932,2.471,2.28,2.471
			c0.898,0,1.449-0.359,2.066-0.921l1.101,1.112c-0.809,0.864-1.707,1.403-3.223,1.403
			C35.448,299.516,33.729,297.729,33.729,295.473z"/>
		<path d="M41.871,295.079h3.459v1.641h-3.459V295.079z"/>
		<path d="M46.205,298.157l1.19-1.135c0.539,0.606,1.101,0.943,1.898,0.943c0.651,0,1.112-0.371,1.112-0.955v-0.021
			c0-0.641-0.573-1-1.539-1h-0.719l-0.27-1.101l1.875-1.887h-3.088v-1.482h5.312v1.303l-1.988,1.897
			c1.067,0.18,2.111,0.742,2.111,2.201v0.023c0,1.482-1.078,2.571-2.83,2.571C47.856,299.516,46.879,298.954,46.205,298.157z"/>
	</g>
	<g>
		<path d="M96.908,295.475v-0.022c0-2.234,1.685-4.065,4.099-4.065c1.482,0,2.37,0.494,3.1,1.213l-1.101,1.269
			c-0.606-0.55-1.224-0.887-2.01-0.887c-1.325,0-2.28,1.101-2.28,2.448v0.022c0,1.348,0.932,2.471,2.28,2.471
			c0.898,0,1.449-0.359,2.066-0.921l1.101,1.112c-0.809,0.864-1.707,1.403-3.223,1.403
			C98.626,299.518,96.908,297.731,96.908,295.475z"/>
		<path d="M105.049,295.081h3.459v1.641h-3.459V295.081z"/>
		<path d="M113.539,297.687h-3.841l-0.281-1.224l4.312-4.997h1.46v4.817h1.056v1.403h-1.056v1.696h-1.651V297.687z M113.539,296.283
			v-2.448l-2.089,2.448H113.539z"/>
	</g>
	<g>
		<path d="M86.124,137.781h3.65c0.898,0,1.606,0.247,2.055,0.696c0.359,0.359,0.539,0.797,0.539,1.336v0.022
			c0,0.888-0.472,1.382-1.033,1.696c0.91,0.348,1.471,0.876,1.471,1.932v0.022c0,1.438-1.168,2.156-2.942,2.156h-3.74V137.781z
			 M89.403,140.959c0.764,0,1.247-0.247,1.247-0.831v-0.022c0-0.517-0.404-0.809-1.134-0.809h-1.707v1.662H89.403z M89.864,144.126
			c0.764,0,1.224-0.27,1.224-0.854v-0.022c0-0.527-0.393-0.854-1.28-0.854h-1.999v1.729H89.864z"/>
		<path d="M93.85,141.341h3.459v1.64H93.85V141.341z"/>
		<path d="M99.532,139.477l-1.37,0.337l-0.359-1.415l2.257-0.674h1.179v7.918h-1.707V139.477z"/>
	</g>
	<g>
		<path d="M81.11,199.974h3.65c0.898,0,1.606,0.247,2.055,0.696c0.359,0.359,0.539,0.798,0.539,1.337v0.021
			c0,0.888-0.472,1.382-1.033,1.696c0.91,0.349,1.471,0.876,1.471,1.932v0.022c0,1.438-1.168,2.156-2.942,2.156h-3.74V199.974z
			 M84.39,203.151c0.764,0,1.247-0.246,1.247-0.83v-0.023c0-0.516-0.404-0.809-1.134-0.809h-1.707v1.662H84.39z M84.85,206.319
			c0.764,0,1.224-0.27,1.224-0.854v-0.023c0-0.527-0.393-0.854-1.28-0.854h-1.999v1.73H84.85z"/>
		<path d="M88.836,203.534h3.459v1.639h-3.459V203.534z"/>
		<path d="M93.406,206.465l2.617-2.146c0.977-0.809,1.359-1.234,1.359-1.887c0-0.662-0.438-1.021-1.056-1.021
			c-0.606,0-1.022,0.337-1.606,1.056l-1.213-0.978c0.775-1.055,1.527-1.628,2.931-1.628c1.628,0,2.707,0.954,2.707,2.426v0.022
			c0,1.314-0.674,1.965-2.066,3.043l-1.28,0.988h3.425v1.494h-5.817V206.465z"/>
		<path d="M101.39,207.128c-0.573-0.573-0.932-1.416-0.932-2.977v-0.022c0-2.426,1.101-4.29,3.448-4.29
			c1.067,0,1.763,0.314,2.459,0.865l-0.91,1.336c-0.517-0.393-0.932-0.629-1.606-0.629c-0.977,0-1.471,0.786-1.583,1.819
			c0.393-0.259,0.854-0.505,1.628-0.505c1.561,0,2.763,0.864,2.763,2.504v0.022c0,1.606-1.292,2.718-2.999,2.718
			C102.637,207.97,101.94,207.678,101.39,207.128z M104.939,205.331v-0.023c0-0.662-0.517-1.145-1.37-1.145
			s-1.348,0.471-1.348,1.134v0.022c0,0.662,0.517,1.168,1.37,1.168S104.939,206.005,104.939,205.331z"/>
	</g>
	<g>
		<path d="M131.503,137.781h3.65c0.898,0,1.606,0.247,2.055,0.696c0.359,0.359,0.539,0.797,0.539,1.336v0.022
			c0,0.888-0.472,1.382-1.033,1.696c0.91,0.348,1.471,0.876,1.471,1.932v0.022c0,1.438-1.168,2.156-2.942,2.156h-3.74V137.781z
			 M134.782,140.959c0.764,0,1.247-0.247,1.247-0.831v-0.022c0-0.517-0.404-0.809-1.134-0.809h-1.707v1.662H134.782z
			 M135.243,144.126c0.764,0,1.224-0.27,1.224-0.854v-0.022c0-0.527-0.393-0.854-1.28-0.854h-1.999v1.729H135.243z"/>
		<path d="M139.229,141.341h3.459v1.64h-3.459V141.341z"/>
		<path d="M143.799,144.272l2.617-2.146c0.977-0.809,1.359-1.235,1.359-1.887c0-0.662-0.438-1.021-1.056-1.021
			c-0.606,0-1.022,0.337-1.606,1.056l-1.213-0.978c0.775-1.056,1.527-1.628,2.931-1.628c1.628,0,2.707,0.954,2.707,2.426v0.022
			c0,1.313-0.674,1.965-2.066,3.043l-1.28,0.988h3.425v1.494h-5.817V144.272z"/>
	</g>
	<g>
		<path d="M143.748,44.896h1.595l3.369,7.918h-1.808l-0.719-1.764h-3.324l-0.719,1.764h-1.763L143.748,44.896z M145.567,49.522
			l-1.044-2.549l-1.044,2.549H145.567z"/>
		<path d="M149.093,48.512h3.459v1.64h-3.459V48.512z"/>
		<path d="M153.663,51.443l2.617-2.146c0.977-0.809,1.359-1.235,1.359-1.887c0-0.662-0.438-1.021-1.056-1.021
			c-0.606,0-1.022,0.337-1.606,1.056l-1.213-0.978c0.775-1.056,1.527-1.628,2.931-1.628c1.628,0,2.707,0.954,2.707,2.426v0.022
			c0,1.313-0.674,1.965-2.066,3.043l-1.28,0.988h3.425v1.494h-5.817V51.443z"/>
	</g>
	<g>
		<path d="M187.601,44.896h1.595l3.369,7.918h-1.808l-0.719-1.764h-3.324l-0.719,1.764h-1.763L187.601,44.896z M189.42,49.522
			l-1.044-2.549l-1.044,2.549H189.42z"/>
		<path d="M192.945,48.512h3.459v1.64h-3.459V48.512z"/>
		<path d="M197.28,51.589l1.19-1.134c0.539,0.606,1.101,0.943,1.898,0.943c0.651,0,1.112-0.371,1.112-0.955v-0.022
			c0-0.64-0.573-0.999-1.539-0.999h-0.719l-0.27-1.101l1.875-1.887h-3.088v-1.482h5.312v1.303l-1.988,1.897
			c1.067,0.18,2.111,0.741,2.111,2.201v0.022c0,1.482-1.078,2.572-2.83,2.572C198.931,52.948,197.954,52.387,197.28,51.589z"/>
	</g>
	<g>
		<path d="M230.952,44.896h1.595l3.369,7.918h-1.808l-0.719-1.764h-3.324l-0.719,1.764h-1.763L230.952,44.896z M232.771,49.522
			l-1.044-2.549l-1.044,2.549H232.771z"/>
		<path d="M236.296,48.512h3.459v1.64h-3.459V48.512z"/>
		<path d="M244.786,51.117h-3.841l-0.281-1.224l4.312-4.998h1.46v4.818h1.056v1.403h-1.056v1.696h-1.651V51.117z M244.786,49.714
			v-2.448l-2.089,2.448H244.786z"/>
	</g>
	<g>
		<path d="M275.071,44.896h1.595l3.369,7.918h-1.808l-0.719-1.764h-3.324l-0.719,1.764h-1.763L275.071,44.896z M276.89,49.522
			l-1.044-2.549l-1.044,2.549H276.89z"/>
		<path d="M280.416,48.512h3.459v1.64h-3.459V48.512z"/>
		<path d="M284.918,51.769l1.044-1.246c0.595,0.539,1.179,0.854,1.875,0.854c0.809,0,1.314-0.394,1.314-1.09v-0.022
			c0-0.674-0.573-1.066-1.393-1.066c-0.494,0-0.943,0.135-1.314,0.292l-1-0.663l0.225-3.874h4.829v1.516h-3.347l-0.09,1.359
			c0.314-0.079,0.595-0.135,1.033-0.135c1.527,0,2.751,0.741,2.751,2.516v0.022c0,1.662-1.179,2.718-2.987,2.718
			C286.603,52.948,285.682,52.499,284.918,51.769z"/>
	</g>
	<g>
		<path d="M318.679,44.896h1.595l3.369,7.918h-1.808l-0.719-1.764h-3.324l-0.719,1.764h-1.763L318.679,44.896z M320.499,49.522
			l-1.044-2.549l-1.044,2.549H320.499z"/>
		<path d="M324.024,48.512h3.459v1.64h-3.459V48.512z"/>
		<path d="M329.583,52.105c-0.573-0.572-0.932-1.415-0.932-2.976v-0.022c0-2.426,1.101-4.29,3.448-4.29
			c1.067,0,1.763,0.314,2.459,0.864l-0.91,1.337c-0.517-0.394-0.932-0.629-1.606-0.629c-0.977,0-1.471,0.786-1.583,1.819
			c0.393-0.259,0.854-0.506,1.628-0.506c1.561,0,2.763,0.865,2.763,2.505v0.022c0,1.605-1.292,2.718-2.999,2.718
			C330.829,52.948,330.133,52.656,329.583,52.105z M333.131,50.309v-0.022c0-0.662-0.517-1.146-1.37-1.146s-1.348,0.472-1.348,1.135
			v0.022c0,0.662,0.517,1.168,1.37,1.168S333.131,50.982,333.131,50.309z"/>
	</g>
	<g>
		<path d="M95.866,44.896h1.595l3.369,7.918h-1.808l-0.719-1.764h-3.324l-0.719,1.764h-1.763L95.866,44.896z M97.686,49.522
			l-1.044-2.549l-1.044,2.549H97.686z"/>
		<path d="M101.211,48.512h3.459v1.64h-3.459V48.512z"/>
		<path d="M106.893,46.647l-1.37,0.337l-0.359-1.415l2.257-0.674h1.179v7.918h-1.707V46.647z"/>
	</g>
	<g>
		<path d="M127.966,199.974h3.65c0.898,0,1.606,0.247,2.055,0.696c0.359,0.359,0.539,0.798,0.539,1.337v0.021
			c0,0.888-0.472,1.382-1.033,1.696c0.91,0.349,1.471,0.876,1.471,1.932v0.022c0,1.438-1.168,2.156-2.942,2.156h-3.74V199.974z
			 M131.245,203.151c0.764,0,1.247-0.246,1.247-0.83v-0.023c0-0.516-0.404-0.809-1.134-0.809h-1.707v1.662H131.245z
			 M131.706,206.319c0.764,0,1.224-0.27,1.224-0.854v-0.023c0-0.527-0.393-0.854-1.28-0.854h-1.999v1.73H131.706z"/>
		<path d="M135.691,203.534h3.459v1.639h-3.459V203.534z"/>
		<path d="M140.262,206.465l2.617-2.146c0.977-0.809,1.359-1.234,1.359-1.887c0-0.662-0.438-1.021-1.056-1.021
			c-0.606,0-1.022,0.337-1.606,1.056l-1.213-0.978c0.775-1.055,1.527-1.628,2.931-1.628c1.628,0,2.707,0.954,2.707,2.426v0.022
			c0,1.314-0.674,1.965-2.066,3.043l-1.28,0.988h3.425v1.494h-5.817V206.465z"/>
		<path d="M147.19,206.79l1.044-1.246c0.595,0.539,1.179,0.854,1.875,0.854c0.809,0,1.314-0.393,1.314-1.09v-0.021
			c0-0.674-0.573-1.067-1.393-1.067c-0.494,0-0.943,0.135-1.314,0.292l-1-0.662l0.225-3.875h4.829v1.516h-3.347l-0.09,1.359
			c0.314-0.078,0.595-0.135,1.033-0.135c1.527,0,2.751,0.741,2.751,2.516v0.022c0,1.662-1.179,2.718-2.987,2.718
			C148.875,207.97,147.954,207.521,147.19,206.79z"/>
	</g>
	<g>
		<path d="M176.278,137.781h3.65c0.898,0,1.606,0.247,2.055,0.696c0.359,0.359,0.539,0.797,0.539,1.336v0.022
			c0,0.888-0.472,1.382-1.033,1.696c0.91,0.348,1.471,0.876,1.471,1.932v0.022c0,1.438-1.168,2.156-2.942,2.156h-3.74V137.781z
			 M179.558,140.959c0.764,0,1.247-0.247,1.247-0.831v-0.022c0-0.517-0.404-0.809-1.134-0.809h-1.707v1.662H179.558z
			 M180.018,144.126c0.764,0,1.224-0.27,1.224-0.854v-0.022c0-0.527-0.393-0.854-1.28-0.854h-1.999v1.729H180.018z"/>
		<path d="M184.004,141.341h3.459v1.64h-3.459V141.341z"/>
		<path d="M188.338,144.418l1.19-1.134c0.539,0.606,1.101,0.943,1.898,0.943c0.651,0,1.112-0.371,1.112-0.955v-0.022
			c0-0.64-0.573-0.999-1.539-0.999h-0.719l-0.27-1.101l1.875-1.887h-3.088v-1.482h5.312v1.303l-1.988,1.897
			c1.067,0.18,2.111,0.741,2.111,2.201v0.022c0,1.482-1.078,2.572-2.83,2.572C189.989,145.777,189.012,145.216,188.338,144.418z"/>
	</g>
	<g>
		<path d="M172.427,199.974h3.65c0.898,0,1.606,0.247,2.055,0.696c0.359,0.359,0.539,0.798,0.539,1.337v0.021
			c0,0.888-0.472,1.382-1.033,1.696c0.91,0.349,1.471,0.876,1.471,1.932v0.022c0,1.438-1.168,2.156-2.942,2.156h-3.74V199.974z
			 M175.706,203.151c0.764,0,1.247-0.246,1.247-0.83v-0.023c0-0.516-0.404-0.809-1.134-0.809h-1.707v1.662H175.706z
			 M176.167,206.319c0.764,0,1.224-0.27,1.224-0.854v-0.023c0-0.527-0.393-0.854-1.28-0.854h-1.999v1.73H176.167z"/>
		<path d="M180.152,203.534h3.459v1.639h-3.459V203.534z"/>
		<path d="M184.723,206.465l2.617-2.146c0.977-0.809,1.359-1.234,1.359-1.887c0-0.662-0.438-1.021-1.056-1.021
			c-0.606,0-1.022,0.337-1.606,1.056l-1.213-0.978c0.775-1.055,1.527-1.628,2.931-1.628c1.628,0,2.707,0.954,2.707,2.426v0.022
			c0,1.314-0.674,1.965-2.066,3.043l-1.28,0.988h3.425v1.494h-5.817V206.465z"/>
		<path d="M195.469,206.14h-3.841l-0.281-1.225l4.312-4.998h1.46v4.818h1.056v1.404h-1.056v1.695h-1.651V206.14z M195.469,204.735
			v-2.448l-2.089,2.448H195.469z"/>
	</g>
	<g>
		<path d="M220.545,137.781h3.65c0.898,0,1.606,0.247,2.055,0.696c0.359,0.359,0.539,0.797,0.539,1.336v0.022
			c0,0.888-0.472,1.382-1.033,1.696c0.91,0.348,1.471,0.876,1.471,1.932v0.022c0,1.438-1.168,2.156-2.942,2.156h-3.74V137.781z
			 M223.825,140.959c0.764,0,1.247-0.247,1.247-0.831v-0.022c0-0.517-0.404-0.809-1.134-0.809h-1.707v1.662H223.825z
			 M224.285,144.126c0.764,0,1.224-0.27,1.224-0.854v-0.022c0-0.527-0.393-0.854-1.28-0.854h-1.999v1.729H224.285z"/>
		<path d="M228.271,141.341h3.459v1.64h-3.459V141.341z"/>
		<path d="M236.761,143.946h-3.841l-0.281-1.224l4.312-4.998h1.46v4.818h1.056v1.403h-1.056v1.696h-1.651V143.946z M236.761,142.543
			v-2.448l-2.089,2.448H236.761z"/>
	</g>
	<g>
		<path d="M217.429,199.974h3.65c0.898,0,1.606,0.247,2.055,0.696c0.359,0.359,0.539,0.798,0.539,1.337v0.021
			c0,0.888-0.472,1.382-1.033,1.696c0.91,0.349,1.471,0.876,1.471,1.932v0.022c0,1.438-1.168,2.156-2.942,2.156h-3.74V199.974z
			 M220.708,203.151c0.764,0,1.247-0.246,1.247-0.83v-0.023c0-0.516-0.404-0.809-1.134-0.809h-1.707v1.662H220.708z
			 M221.169,206.319c0.764,0,1.224-0.27,1.224-0.854v-0.023c0-0.527-0.393-0.854-1.28-0.854h-1.999v1.73H221.169z"/>
		<path d="M225.155,203.534h3.459v1.639h-3.459V203.534z"/>
		<path d="M229.725,206.465l2.617-2.146c0.977-0.809,1.359-1.234,1.359-1.887c0-0.662-0.438-1.021-1.056-1.021
			c-0.606,0-1.022,0.337-1.606,1.056l-1.213-0.978c0.775-1.055,1.527-1.628,2.931-1.628c1.628,0,2.707,0.954,2.707,2.426v0.022
			c0,1.314-0.674,1.965-2.066,3.043l-1.28,0.988h3.425v1.494h-5.817V206.465z"/>
		<path d="M236.597,206.61l1.19-1.134c0.539,0.606,1.101,0.943,1.898,0.943c0.651,0,1.112-0.37,1.112-0.954v-0.023
			c0-0.64-0.573-0.999-1.539-0.999h-0.719l-0.27-1.101l1.875-1.887h-3.088v-1.482h5.312v1.303l-1.988,1.898
			c1.067,0.18,2.111,0.74,2.111,2.201v0.021c0,1.482-1.078,2.572-2.83,2.572C238.248,207.97,237.271,207.408,236.597,206.61z"/>
	</g>
	<g>
		<path d="M265.584,137.781h3.65c0.898,0,1.606,0.247,2.055,0.696c0.359,0.359,0.539,0.797,0.539,1.336v0.022
			c0,0.888-0.472,1.382-1.033,1.696c0.91,0.348,1.471,0.876,1.471,1.932v0.022c0,1.438-1.168,2.156-2.942,2.156h-3.74V137.781z
			 M268.864,140.959c0.764,0,1.247-0.247,1.247-0.831v-0.022c0-0.517-0.404-0.809-1.134-0.809h-1.707v1.662H268.864z
			 M269.324,144.126c0.764,0,1.224-0.27,1.224-0.854v-0.022c0-0.527-0.393-0.854-1.28-0.854h-1.999v1.729H269.324z"/>
		<path d="M273.31,141.341h3.459v1.64h-3.459V141.341z"/>
		<path d="M277.813,144.598l1.044-1.246c0.595,0.539,1.179,0.854,1.875,0.854c0.809,0,1.314-0.394,1.314-1.09v-0.022
			c0-0.674-0.573-1.066-1.393-1.066c-0.494,0-0.943,0.135-1.314,0.292l-1-0.663l0.225-3.874h4.829v1.516h-3.347l-0.09,1.359
			c0.314-0.079,0.595-0.135,1.033-0.135c1.527,0,2.751,0.741,2.751,2.516v0.022c0,1.662-1.179,2.718-2.987,2.718
			C279.498,145.777,278.577,145.328,277.813,144.598z"/>
	</g>
	<g>
		<path d="M262.126,199.974h3.65c0.898,0,1.606,0.247,2.055,0.696c0.359,0.359,0.539,0.798,0.539,1.337v0.021
			c0,0.888-0.472,1.382-1.033,1.696c0.91,0.349,1.471,0.876,1.471,1.932v0.022c0,1.438-1.168,2.156-2.942,2.156h-3.74V199.974z
			 M265.405,203.151c0.764,0,1.247-0.246,1.247-0.83v-0.023c0-0.516-0.404-0.809-1.134-0.809h-1.707v1.662H265.405z
			 M265.866,206.319c0.764,0,1.224-0.27,1.224-0.854v-0.023c0-0.527-0.393-0.854-1.28-0.854h-1.999v1.73H265.866z"/>
		<path d="M269.852,203.534h3.459v1.639h-3.459V203.534z"/>
		<path d="M274.422,206.465l2.617-2.146c0.977-0.809,1.359-1.234,1.359-1.887c0-0.662-0.438-1.021-1.056-1.021
			c-0.606,0-1.022,0.337-1.606,1.056l-1.213-0.978c0.775-1.055,1.527-1.628,2.931-1.628c1.628,0,2.707,0.954,2.707,2.426v0.022
			c0,1.314-0.674,1.965-2.066,3.043l-1.28,0.988h3.425v1.494h-5.817V206.465z"/>
		<path d="M281.417,206.465l2.617-2.146c0.977-0.809,1.359-1.234,1.359-1.887c0-0.662-0.438-1.021-1.056-1.021
			c-0.606,0-1.022,0.337-1.606,1.056l-1.213-0.978c0.775-1.055,1.527-1.628,2.931-1.628c1.628,0,2.707,0.954,2.707,2.426v0.022
			c0,1.314-0.674,1.965-2.066,3.043l-1.28,0.988h3.425v1.494h-5.817V206.465z"/>
	</g>
	<g>
		<path d="M310.112,137.781h3.65c0.898,0,1.606,0.247,2.055,0.696c0.359,0.359,0.539,0.797,0.539,1.336v0.022
			c0,0.888-0.472,1.382-1.033,1.696c0.91,0.348,1.471,0.876,1.471,1.932v0.022c0,1.438-1.168,2.156-2.942,2.156h-3.74V137.781z
			 M313.391,140.959c0.764,0,1.247-0.247,1.247-0.831v-0.022c0-0.517-0.404-0.809-1.134-0.809h-1.707v1.662H313.391z
			 M313.852,144.126c0.764,0,1.224-0.27,1.224-0.854v-0.022c0-0.527-0.393-0.854-1.28-0.854h-1.999v1.729H313.852z"/>
		<path d="M317.837,141.341h3.459v1.64h-3.459V141.341z"/>
		<path d="M323.396,144.935c-0.573-0.572-0.932-1.415-0.932-2.976v-0.022c0-2.426,1.101-4.29,3.448-4.29
			c1.067,0,1.763,0.314,2.459,0.864l-0.91,1.337c-0.517-0.394-0.932-0.629-1.606-0.629c-0.977,0-1.471,0.786-1.583,1.819
			c0.393-0.259,0.854-0.506,1.628-0.506c1.561,0,2.763,0.865,2.763,2.505v0.022c0,1.605-1.292,2.718-2.999,2.718
			C324.643,145.777,323.946,145.485,323.396,144.935z M326.945,143.138v-0.022c0-0.662-0.517-1.146-1.37-1.146
			s-1.348,0.472-1.348,1.135v0.022c0,0.662,0.517,1.168,1.37,1.168S326.945,143.812,326.945,143.138z"/>
	</g>
	<g>
		<path d="M307.961,199.974h3.65c0.898,0,1.606,0.247,2.055,0.696c0.359,0.359,0.539,0.798,0.539,1.337v0.021
			c0,0.888-0.472,1.382-1.033,1.696c0.91,0.349,1.471,0.876,1.471,1.932v0.022c0,1.438-1.168,2.156-2.942,2.156h-3.74V199.974z
			 M311.241,203.151c0.764,0,1.247-0.246,1.247-0.83v-0.023c0-0.516-0.404-0.809-1.134-0.809h-1.707v1.662H311.241z
			 M311.701,206.319c0.764,0,1.224-0.27,1.224-0.854v-0.023c0-0.527-0.393-0.854-1.28-0.854h-1.999v1.73H311.701z"/>
		<path d="M315.687,203.534h3.459v1.639h-3.459V203.534z"/>
		<path d="M320.257,206.465l2.617-2.146c0.977-0.809,1.359-1.234,1.359-1.887c0-0.662-0.438-1.021-1.056-1.021
			c-0.606,0-1.022,0.337-1.606,1.056l-1.213-0.978c0.775-1.055,1.527-1.628,2.931-1.628c1.628,0,2.707,0.954,2.707,2.426v0.022
			c0,1.314-0.674,1.965-2.066,3.043l-1.28,0.988h3.425v1.494h-5.817V206.465z"/>
		<path d="M328.702,201.669l-1.37,0.338l-0.359-1.416l2.257-0.674h1.179v7.918h-1.707V201.669z"/>
	</g>
	<g>
		<path d="M364.571,137.781h3.65c0.898,0,1.606,0.247,2.055,0.696c0.359,0.359,0.539,0.797,0.539,1.336v0.022
			c0,0.888-0.472,1.382-1.033,1.696c0.91,0.348,1.471,0.876,1.471,1.932v0.022c0,1.438-1.168,2.156-2.942,2.156h-3.74V137.781z
			 M367.851,140.959c0.764,0,1.247-0.247,1.247-0.831v-0.022c0-0.517-0.404-0.809-1.134-0.809h-1.707v1.662H367.851z
			 M368.311,144.126c0.764,0,1.224-0.27,1.224-0.854v-0.022c0-0.527-0.393-0.854-1.28-0.854h-1.999v1.729H368.311z"/>
		<path d="M372.297,141.341h3.459v1.64h-3.459V141.341z"/>
		<path d="M380.326,139.274h-3.695v-1.493h5.66v1.303l-3.526,6.559h-1.954L380.326,139.274z"/>
	</g>
	<g>
		<path d="M360.226,199.974h3.65c0.898,0,1.606,0.247,2.055,0.696c0.359,0.359,0.539,0.798,0.539,1.337v0.021
			c0,0.888-0.472,1.382-1.033,1.696c0.91,0.349,1.471,0.876,1.471,1.932v0.022c0,1.438-1.168,2.156-2.942,2.156h-3.74V199.974z
			 M363.505,203.151c0.764,0,1.247-0.246,1.247-0.83v-0.023c0-0.516-0.404-0.809-1.134-0.809h-1.707v1.662H363.505z
			 M363.965,206.319c0.764,0,1.224-0.27,1.224-0.854v-0.023c0-0.527-0.393-0.854-1.28-0.854h-1.999v1.73H363.965z"/>
		<path d="M367.951,203.534h3.459v1.639h-3.459V203.534z"/>
		<path d="M372.521,206.465l2.617-2.146c0.977-0.809,1.359-1.234,1.359-1.887c0-0.662-0.438-1.021-1.056-1.021
			c-0.606,0-1.022,0.337-1.606,1.056l-1.213-0.978c0.775-1.055,1.527-1.628,2.931-1.628c1.628,0,2.707,0.954,2.707,2.426v0.022
			c0,1.314-0.674,1.965-2.066,3.043l-1.28,0.988h3.425v1.494h-5.817V206.465z"/>
		<path d="M379.573,203.927v-0.022c0-2.28,1.415-4.065,3.504-4.065c2.078,0,3.481,1.764,3.481,4.043v0.022
			c0,2.28-1.404,4.065-3.504,4.065S379.573,206.206,379.573,203.927z M384.784,203.927v-0.022c0-1.427-0.696-2.505-1.729-2.505
			s-1.707,1.045-1.707,2.482v0.022c0,1.438,0.685,2.505,1.729,2.505S384.784,205.353,384.784,203.927z"/>
	</g>
	<g>
		<path d="M407.763,137.781h3.65c0.898,0,1.606,0.247,2.055,0.696c0.359,0.359,0.539,0.797,0.539,1.336v0.022
			c0,0.888-0.472,1.382-1.033,1.696c0.91,0.348,1.471,0.876,1.471,1.932v0.022c0,1.438-1.168,2.156-2.942,2.156h-3.74V137.781z
			 M411.042,140.959c0.764,0,1.247-0.247,1.247-0.831v-0.022c0-0.517-0.404-0.809-1.134-0.809h-1.707v1.662H411.042z
			 M411.503,144.126c0.764,0,1.224-0.27,1.224-0.854v-0.022c0-0.527-0.393-0.854-1.28-0.854h-1.999v1.729H411.503z"/>
		<path d="M415.489,141.341h3.459v1.64h-3.459V141.341z"/>
		<path d="M420.014,143.486v-0.022c0-0.955,0.438-1.517,1.258-1.898c-0.6-0.37-0.988-0.876-0.988-1.718v-0.022
			c0-1.202,1.089-2.156,2.751-2.156c1.662,0,2.763,0.943,2.763,2.156v0.022c0,0.842-0.393,1.348-1,1.718
			c0.798,0.416,1.27,0.921,1.27,1.854v0.022c0,1.46-1.291,2.313-3.032,2.313C421.293,145.755,420.014,144.856,420.014,143.486z
			 M424.394,143.352v-0.022c0-0.606-0.572-0.966-1.358-0.966s-1.359,0.359-1.359,0.966v0.022c0,0.539,0.505,0.977,1.359,0.977
			S424.394,143.901,424.394,143.352z M424.158,140.038v-0.022c0-0.482-0.415-0.921-1.123-0.921s-1.124,0.427-1.124,0.91v0.022
			c0,0.55,0.439,0.966,1.124,0.966S424.158,140.589,424.158,140.038z"/>
	</g>
	<g>
		<path d="M407.505,199.974h3.65c0.898,0,1.606,0.247,2.055,0.696c0.359,0.359,0.539,0.798,0.539,1.337v0.021
			c0,0.888-0.472,1.382-1.033,1.696c0.91,0.349,1.471,0.876,1.471,1.932v0.022c0,1.438-1.168,2.156-2.942,2.156h-3.74V199.974z
			 M410.784,203.151c0.764,0,1.247-0.246,1.247-0.83v-0.023c0-0.516-0.404-0.809-1.134-0.809h-1.707v1.662H410.784z
			 M411.245,206.319c0.764,0,1.224-0.27,1.224-0.854v-0.023c0-0.527-0.393-0.854-1.28-0.854h-1.999v1.73H411.245z"/>
		<path d="M416.668,201.669l-1.37,0.338l-0.359-1.416l2.257-0.674h1.179v7.918h-1.707V201.669z"/>
		<path d="M420.216,207.038l0.897-1.314c0.573,0.461,1.057,0.674,1.719,0.674c0.966,0,1.482-0.73,1.595-1.785
			c-0.382,0.325-0.909,0.539-1.595,0.539c-1.708,0-2.796-0.943-2.796-2.539v-0.021c0-1.584,1.212-2.752,2.988-2.752
			c1.055,0,1.673,0.258,2.268,0.854c0.562,0.562,0.933,1.415,0.933,2.965v0.022c0,2.55-1.202,4.29-3.437,4.29
			C421.642,207.97,420.868,207.588,420.216,207.038z M424.462,202.546v-0.023c0-0.695-0.518-1.201-1.382-1.201
			c-0.854,0-1.337,0.494-1.337,1.19v0.022c0,0.696,0.518,1.18,1.372,1.18S424.462,203.22,424.462,202.546z"/>
	</g>
	<g>
		<path d="M451.879,137.781h3.649c0.898,0,1.606,0.247,2.056,0.696c0.359,0.359,0.539,0.797,0.539,1.336v0.022
			c0,0.888-0.472,1.382-1.033,1.696c0.909,0.348,1.472,0.876,1.472,1.932v0.022c0,1.438-1.168,2.156-2.943,2.156h-3.739V137.781z
			 M455.158,140.959c0.764,0,1.247-0.247,1.247-0.831v-0.022c0-0.517-0.404-0.809-1.135-0.809h-1.707v1.662H455.158z
			 M455.618,144.126c0.764,0,1.225-0.27,1.225-0.854v-0.022c0-0.527-0.393-0.854-1.28-0.854h-1.999v1.729H455.618z"/>
		<path d="M459.604,141.341h3.459v1.64h-3.459V141.341z"/>
		<path d="M464.433,144.845l0.91-1.313c0.572,0.46,1.055,0.674,1.718,0.674c0.966,0,1.482-0.73,1.595-1.786
			c-0.382,0.326-0.91,0.539-1.595,0.539c-1.707,0-2.808-0.943-2.808-2.538v-0.022c0-1.583,1.225-2.751,2.998-2.751
			c1.057,0,1.674,0.258,2.27,0.854c0.561,0.562,0.932,1.415,0.932,2.965v0.022c0,2.549-1.201,4.29-3.437,4.29
			C465.87,145.777,465.095,145.396,464.433,144.845z M468.688,140.353v-0.022c0-0.696-0.516-1.201-1.381-1.201
			c-0.854,0-1.336,0.494-1.336,1.19v0.022c0,0.696,0.516,1.179,1.369,1.179S468.688,141.026,468.688,140.353z"/>
	</g>
	<g>
		<path d="M449.857,199.974h3.649c0.898,0,1.606,0.247,2.056,0.696c0.359,0.359,0.539,0.798,0.539,1.337v0.021
			c0,0.888-0.472,1.382-1.033,1.696c0.909,0.349,1.472,0.876,1.472,1.932v0.022c0,1.438-1.168,2.156-2.943,2.156h-3.739V199.974z
			 M453.137,203.151c0.764,0,1.247-0.246,1.247-0.83v-0.023c0-0.516-0.404-0.809-1.135-0.809h-1.707v1.662H453.137z
			 M453.597,206.319c0.764,0,1.225-0.27,1.225-0.854v-0.023c0-0.527-0.393-0.854-1.28-0.854h-1.999v1.73H453.597z"/>
		<path d="M457.583,203.534h3.459v1.639h-3.459V203.534z"/>
		<path d="M463.265,201.669l-1.37,0.338l-0.359-1.416l2.257-0.674h1.18v7.918h-1.707V201.669z"/>
		<path d="M466.511,205.679v-0.022c0-0.954,0.438-1.517,1.269-1.897c-0.606-0.371-0.999-0.877-0.999-1.719v-0.022
			c0-1.202,1.1-2.156,2.762-2.156s2.764,0.943,2.764,2.156v0.022c0,0.842-0.394,1.348-1,1.719c0.797,0.415,1.27,0.92,1.27,1.853
			v0.022c0,1.46-1.292,2.313-3.033,2.313C467.802,207.947,466.511,207.049,466.511,205.679z M470.901,205.544v-0.022
			c0-0.606-0.572-0.966-1.359-0.966c-0.785,0-1.358,0.359-1.358,0.966v0.022c0,0.539,0.505,0.977,1.358,0.977
			S470.901,206.095,470.901,205.544z M470.665,202.231v-0.023c0-0.482-0.415-0.92-1.123-0.92c-0.707,0-1.123,0.426-1.123,0.909
			v0.022c0,0.551,0.438,0.966,1.123,0.966C470.228,203.186,470.665,202.781,470.665,202.231z"/>
	</g>
	<g>
		<path d="M493.601,137.781h3.65c0.898,0,1.605,0.247,2.055,0.696c0.359,0.359,0.539,0.797,0.539,1.336v0.022
			c0,0.888-0.472,1.382-1.033,1.696c0.91,0.348,1.471,0.876,1.471,1.932v0.022c0,1.438-1.168,2.156-2.941,2.156h-3.74V137.781z
			 M496.88,140.959c0.764,0,1.246-0.247,1.246-0.831v-0.022c0-0.517-0.404-0.809-1.134-0.809h-1.707v1.662H496.88z M497.341,144.126
			c0.764,0,1.224-0.27,1.224-0.854v-0.022c0-0.527-0.394-0.854-1.28-0.854h-1.999v1.729H497.341z"/>
		<path d="M501.326,141.341h3.459v1.64h-3.459V141.341z"/>
		<path d="M507.008,139.477l-1.37,0.337l-0.359-1.415l2.258-0.674h1.179v7.918h-1.707V139.477z"/>
		<path d="M510.354,141.734v-0.022c0-2.28,1.415-4.065,3.504-4.065c2.078,0,3.481,1.763,3.481,4.043v0.022
			c0,2.279-1.403,4.065-3.504,4.065S510.354,144.014,510.354,141.734z M515.565,141.734v-0.022c0-1.427-0.696-2.505-1.729-2.505
			s-1.707,1.045-1.707,2.482v0.022c0,1.438,0.685,2.504,1.729,2.504S515.565,143.16,515.565,141.734z"/>
	</g>
	<g>
		<path d="M494.225,199.974h3.649c0.898,0,1.606,0.247,2.056,0.696c0.359,0.359,0.539,0.798,0.539,1.337v0.021
			c0,0.888-0.472,1.382-1.033,1.696c0.909,0.349,1.472,0.876,1.472,1.932v0.022c0,1.438-1.168,2.156-2.943,2.156h-3.739V199.974z
			 M497.504,203.151c0.764,0,1.247-0.246,1.247-0.83v-0.023c0-0.516-0.404-0.809-1.135-0.809h-1.707v1.662H497.504z
			 M497.964,206.319c0.764,0,1.225-0.27,1.225-0.854v-0.023c0-0.527-0.393-0.854-1.28-0.854h-1.999v1.73H497.964z"/>
		<path d="M501.95,203.534h3.459v1.639h-3.459V203.534z"/>
		<path d="M507.632,201.669l-1.37,0.338l-0.359-1.416l2.257-0.674h1.18v7.918h-1.707V201.669z"/>
		<path d="M514.831,201.468h-3.695v-1.494h5.66v1.303l-3.526,6.559h-1.954L514.831,201.468z"/>
	</g>
	<g>
		<path d="M539.637,137.781h3.649c0.898,0,1.606,0.247,2.056,0.696c0.359,0.359,0.539,0.797,0.539,1.336v0.022
			c0,0.888-0.472,1.382-1.033,1.696c0.909,0.348,1.472,0.876,1.472,1.932v0.022c0,1.438-1.168,2.156-2.943,2.156h-3.739V137.781z
			 M542.916,140.959c0.764,0,1.247-0.247,1.247-0.831v-0.022c0-0.517-0.404-0.809-1.135-0.809h-1.707v1.662H542.916z
			 M543.376,144.126c0.764,0,1.225-0.27,1.225-0.854v-0.022c0-0.527-0.393-0.854-1.28-0.854h-1.999v1.729H543.376z"/>
		<path d="M547.362,141.341h3.459v1.64h-3.459V141.341z"/>
		<path d="M553.044,139.477l-1.37,0.337l-0.359-1.415l2.257-0.674h1.18v7.918h-1.707V139.477z"/>
		<path d="M557.783,139.477l-1.37,0.337l-0.359-1.415l2.258-0.674h1.179v7.918h-1.707V139.477z"/>
	</g>
	<g>
		<path d="M538.289,199.974h3.649c0.898,0,1.606,0.247,2.056,0.696c0.359,0.359,0.539,0.798,0.539,1.337v0.021
			c0,0.888-0.472,1.382-1.033,1.696c0.909,0.349,1.472,0.876,1.472,1.932v0.022c0,1.438-1.168,2.156-2.943,2.156h-3.739V199.974z
			 M541.568,203.151c0.764,0,1.247-0.246,1.247-0.83v-0.023c0-0.516-0.404-0.809-1.135-0.809h-1.707v1.662H541.568z
			 M542.028,206.319c0.764,0,1.225-0.27,1.225-0.854v-0.023c0-0.527-0.393-0.854-1.28-0.854h-1.999v1.73H542.028z"/>
		<path d="M546.015,203.534h3.459v1.639h-3.459V203.534z"/>
		<path d="M551.696,201.669l-1.37,0.338l-0.359-1.416l2.257-0.674h1.18v7.918h-1.707V201.669z"/>
		<path d="M555.976,207.128c-0.573-0.573-0.933-1.416-0.933-2.977v-0.022c0-2.426,1.101-4.29,3.448-4.29
			c1.066,0,1.763,0.314,2.459,0.865l-0.91,1.336c-0.516-0.393-0.932-0.629-1.605-0.629c-0.977,0-1.471,0.786-1.584,1.819
			c0.394-0.259,0.854-0.505,1.629-0.505c1.561,0,2.763,0.864,2.763,2.504v0.022c0,1.606-1.292,2.718-2.999,2.718
			C557.222,207.97,556.525,207.678,555.976,207.128z M559.524,205.331v-0.023c0-0.662-0.518-1.145-1.371-1.145
			s-1.348,0.471-1.348,1.134v0.022c0,0.662,0.518,1.168,1.371,1.168S559.524,206.005,559.524,205.331z"/>
	</g>
	<g>
		<path d="M140.789,295.475v-0.022c0-2.234,1.685-4.065,4.099-4.065c1.482,0,2.37,0.494,3.1,1.213l-1.101,1.269
			c-0.606-0.55-1.224-0.887-2.01-0.887c-1.325,0-2.28,1.101-2.28,2.448v0.022c0,1.348,0.932,2.471,2.28,2.471
			c0.898,0,1.449-0.359,2.066-0.921l1.101,1.112c-0.809,0.864-1.707,1.403-3.223,1.403
			C142.507,299.518,140.789,297.731,140.789,295.475z"/>
		<path d="M148.93,295.081h3.459v1.641h-3.459V295.081z"/>
		<path d="M153.433,298.339l1.044-1.247c0.595,0.539,1.179,0.854,1.875,0.854c0.809,0,1.314-0.394,1.314-1.089v-0.023
			c0-0.674-0.573-1.066-1.393-1.066c-0.494,0-0.943,0.135-1.314,0.292l-1-0.663l0.225-3.874h4.829v1.517h-3.347l-0.09,1.358
			c0.314-0.079,0.595-0.135,1.033-0.135c1.527,0,2.751,0.741,2.751,2.516v0.022c0,1.662-1.179,2.718-2.987,2.718
			C155.117,299.518,154.196,299.068,153.433,298.339z"/>
	</g>
	<g>
		<path d="M184.397,295.473v-0.022c0-2.234,1.685-4.065,4.099-4.065c1.482,0,2.37,0.494,3.1,1.213l-1.101,1.269
			c-0.606-0.55-1.224-0.887-2.01-0.887c-1.325,0-2.28,1.101-2.28,2.448v0.022c0,1.348,0.932,2.471,2.28,2.471
			c0.898,0,1.449-0.359,2.066-0.921l1.101,1.112c-0.809,0.864-1.707,1.403-3.223,1.403
			C186.115,299.516,184.397,297.729,184.397,295.473z"/>
		<path d="M192.538,295.079h3.459v1.641h-3.459V295.079z"/>
		<path d="M198.097,298.673c-0.573-0.572-0.932-1.414-0.932-2.976v-0.022c0-2.426,1.101-4.29,3.448-4.29
			c1.067,0,1.763,0.314,2.459,0.864l-0.91,1.337c-0.517-0.394-0.932-0.629-1.606-0.629c-0.977,0-1.471,0.786-1.583,1.819
			c0.393-0.258,0.854-0.506,1.628-0.506c1.561,0,2.763,0.865,2.763,2.505v0.022c0,1.605-1.292,2.718-2.999,2.718
			C199.343,299.516,198.647,299.224,198.097,298.673z M201.646,296.876v-0.021c0-0.663-0.517-1.146-1.37-1.146
			s-1.348,0.473-1.348,1.135v0.022c0,0.663,0.517,1.168,1.37,1.168S201.646,297.55,201.646,296.876z"/>
	</g>
	<g>
		<path d="M228.649,295.473v-0.022c0-2.234,1.685-4.065,4.099-4.065c1.482,0,2.37,0.494,3.1,1.213l-1.101,1.269
			c-0.606-0.55-1.224-0.887-2.01-0.887c-1.325,0-2.28,1.101-2.28,2.448v0.022c0,1.348,0.932,2.471,2.28,2.471
			c0.898,0,1.449-0.359,2.066-0.921l1.101,1.112c-0.809,0.864-1.707,1.403-3.223,1.403
			C230.368,299.516,228.649,297.729,228.649,295.473z"/>
		<path d="M236.791,295.079h3.459v1.641h-3.459V295.079z"/>
		<path d="M244.82,293.013h-3.695v-1.493h5.66v1.303l-3.526,6.559h-1.954L244.82,293.013z"/>
	</g>
	<g>
		<path d="M272.151,295.473v-0.022c0-2.234,1.685-4.065,4.099-4.065c1.482,0,2.37,0.494,3.1,1.213l-1.101,1.269
			c-0.606-0.55-1.224-0.887-2.01-0.887c-1.325,0-2.28,1.101-2.28,2.448v0.022c0,1.348,0.932,2.471,2.28,2.471
			c0.898,0,1.449-0.359,2.066-0.921l1.101,1.112c-0.809,0.864-1.707,1.403-3.223,1.403
			C273.869,299.516,272.151,297.729,272.151,295.473z"/>
		<path d="M280.292,295.079h3.459v1.641h-3.459V295.079z"/>
		<path d="M284.817,297.225v-0.022c0-0.955,0.438-1.516,1.269-1.898c-0.606-0.37-1-0.875-1-1.718v-0.022
			c0-1.201,1.101-2.156,2.763-2.156s2.763,0.943,2.763,2.156v0.022c0,0.843-0.393,1.348-1,1.718
			c0.797,0.416,1.269,0.922,1.269,1.854v0.022c0,1.46-1.292,2.313-3.032,2.313S284.817,298.595,284.817,297.225z M289.208,297.09
			v-0.022c0-0.606-0.573-0.966-1.359-0.966s-1.359,0.359-1.359,0.966v0.022c0,0.539,0.505,0.978,1.359,0.978
			S289.208,297.64,289.208,297.09z M288.973,293.776v-0.021c0-0.483-0.416-0.922-1.123-0.922s-1.123,0.428-1.123,0.91v0.022
			c0,0.55,0.438,0.966,1.123,0.966S288.973,294.327,288.973,293.776z"/>
	</g>
	<g>
		<path d="M315.759,295.473v-0.022c0-2.234,1.685-4.065,4.099-4.065c1.482,0,2.37,0.494,3.1,1.213l-1.101,1.269
			c-0.606-0.55-1.224-0.887-2.01-0.887c-1.325,0-2.28,1.101-2.28,2.448v0.022c0,1.348,0.932,2.471,2.28,2.471
			c0.898,0,1.449-0.359,2.066-0.921l1.101,1.112c-0.809,0.864-1.707,1.403-3.223,1.403
			C317.478,299.516,315.759,297.729,315.759,295.473z"/>
		<path d="M323.9,295.079h3.459v1.641H323.9V295.079z"/>
		<path d="M328.729,298.583l0.91-1.313c0.573,0.46,1.056,0.674,1.718,0.674c0.966,0,1.482-0.729,1.595-1.786
			c-0.382,0.326-0.91,0.539-1.595,0.539c-1.707,0-2.808-0.943-2.808-2.537v-0.023c0-1.583,1.224-2.751,2.999-2.751
			c1.056,0,1.673,0.259,2.269,0.854c0.562,0.562,0.932,1.415,0.932,2.965v0.022c0,2.549-1.202,4.29-3.437,4.29
			C330.167,299.516,329.392,299.134,328.729,298.583z M332.985,294.091v-0.021c0-0.697-0.517-1.202-1.381-1.202
			c-0.854,0-1.336,0.494-1.336,1.19v0.022c0,0.696,0.517,1.179,1.37,1.179S332.985,294.765,332.985,294.091z"/>
	</g>
	<g>
		<path d="M360.312,295.473v-0.022c0-2.234,1.685-4.065,4.099-4.065c1.482,0,2.37,0.494,3.1,1.213l-1.101,1.269
			c-0.606-0.55-1.224-0.887-2.01-0.887c-1.325,0-2.28,1.101-2.28,2.448v0.022c0,1.348,0.932,2.471,2.28,2.471
			c0.898,0,1.449-0.359,2.066-0.921l1.101,1.112c-0.809,0.864-1.707,1.403-3.223,1.403
			C362.031,299.516,360.312,297.729,360.312,295.473z"/>
		<path d="M368.454,295.079h3.459v1.641h-3.459V295.079z"/>
		<path d="M374.136,293.216l-1.37,0.336l-0.359-1.414l2.257-0.674h1.179v7.917h-1.707V293.216z"/>
		<path d="M377.482,295.473v-0.022c0-2.279,1.415-4.065,3.504-4.065c2.078,0,3.481,1.763,3.481,4.043v0.022
			c0,2.279-1.404,4.065-3.504,4.065S377.482,297.753,377.482,295.473z M382.693,295.473v-0.022c0-1.426-0.696-2.504-1.729-2.504
			s-1.707,1.044-1.707,2.481v0.022c0,1.438,0.685,2.504,1.729,2.504S382.693,296.899,382.693,295.473z"/>
	</g>
	<g>
		<path d="M406.348,295.473v-0.022c0-2.234,1.685-4.065,4.099-4.065c1.482,0,2.37,0.494,3.1,1.213l-1.101,1.269
			c-0.606-0.55-1.224-0.887-2.01-0.887c-1.325,0-2.28,1.101-2.28,2.448v0.022c0,1.348,0.932,2.471,2.28,2.471
			c0.898,0,1.449-0.359,2.066-0.921l1.101,1.112c-0.809,0.864-1.707,1.403-3.223,1.403
			C408.066,299.516,406.348,297.729,406.348,295.473z"/>
		<path d="M414.489,295.079h3.459v1.641h-3.459V295.079z"/>
		<path d="M420.171,293.216l-1.37,0.336l-0.359-1.414l2.252-0.674h1.172v7.917h-1.695V293.216z"/>
		<path d="M424.899,293.216l-1.37,0.336l-0.359-1.414l2.257-0.674h1.18v7.917h-1.707V293.216z"/>
	</g>
	<g>
		<path d="M445.978,295.473v-0.022c0-2.234,1.684-4.065,4.099-4.065c1.482,0,2.37,0.494,3.1,1.213l-1.101,1.269
			c-0.606-0.55-1.225-0.887-2.01-0.887c-1.326,0-2.28,1.101-2.28,2.448v0.022c0,1.348,0.933,2.471,2.28,2.471
			c0.898,0,1.448-0.359,2.066-0.921l1.1,1.112c-0.809,0.864-1.707,1.403-3.223,1.403
			C447.695,299.516,445.978,297.729,445.978,295.473z"/>
		<path d="M454.118,295.079h3.459v1.641h-3.459V295.079z"/>
		<path d="M459.801,293.216l-1.37,0.336l-0.359-1.414l2.258-0.674h1.179v7.917h-1.707V293.216z"/>
		<path d="M463.091,298.011l2.616-2.145c0.978-0.809,1.358-1.236,1.358-1.887c0-0.663-0.438-1.022-1.055-1.022
			c-0.607,0-1.022,0.337-1.606,1.056l-1.213-0.977c0.774-1.057,1.527-1.629,2.931-1.629c1.629,0,2.707,0.955,2.707,2.426v0.022
			c0,1.313-0.674,1.966-2.066,3.044l-1.28,0.988h3.425v1.493h-5.816V298.011z"/>
	</g>
	<g>
		<path d="M493.831,295.473v-0.022c0-2.234,1.686-4.065,4.1-4.065c1.482,0,2.369,0.494,3.1,1.213l-1.101,1.269
			c-0.606-0.55-1.224-0.887-2.011-0.887c-1.324,0-2.279,1.101-2.279,2.448v0.022c0,1.348,0.932,2.471,2.279,2.471
			c0.898,0,1.449-0.359,2.066-0.921l1.102,1.112c-0.809,0.864-1.707,1.403-3.224,1.403
			C495.55,299.516,493.831,297.729,493.831,295.473z"/>
		<path d="M501.973,295.079h3.459v1.641h-3.459V295.079z"/>
		<path d="M507.655,293.216l-1.37,0.336l-0.359-1.414l2.257-0.674h1.18v7.917h-1.707V293.216z"/>
		<path d="M510.821,298.157l1.19-1.135c0.539,0.606,1.101,0.943,1.897,0.943c0.652,0,1.112-0.371,1.112-0.955v-0.021
			c0-0.641-0.573-1-1.538-1h-0.719l-0.27-1.101l1.875-1.887h-3.088v-1.482h5.312v1.303l-1.987,1.897
			c1.066,0.18,2.111,0.742,2.111,2.201v0.023c0,1.482-1.078,2.571-2.83,2.571C512.472,299.516,511.495,298.954,510.821,298.157z"/>
	</g>
	<g>
		<path d="M537.757,295.473v-0.022c0-2.234,1.684-4.065,4.099-4.065c1.482,0,2.37,0.494,3.1,1.213l-1.101,1.269
			c-0.606-0.55-1.225-0.887-2.01-0.887c-1.326,0-2.28,1.101-2.28,2.448v0.022c0,1.348,0.933,2.471,2.28,2.471
			c0.898,0,1.448-0.359,2.066-0.921l1.1,1.112c-0.809,0.864-1.707,1.403-3.223,1.403
			C539.475,299.516,537.757,297.729,537.757,295.473z"/>
		<path d="M545.897,295.079h3.459v1.641h-3.459V295.079z"/>
		<path d="M551.58,293.216l-1.37,0.336l-0.359-1.414l2.258-0.674h1.179v7.917h-1.707V293.216z"/>
		<path d="M558.789,297.685h-3.841l-0.281-1.224l4.312-4.997h1.461v4.817h1.055v1.403h-1.055v1.696h-1.651V297.685z
			 M558.789,296.281v-2.448l-2.089,2.448H558.789z"/>
	</g>
	<path fill="#D8D8D8" stroke="#000000" stroke-miterlimit="10" d="M815.9,139.879l-51.844,23.005c0,0-59.9,0-75.065,0
		c-15.17,0-13.616-12.834-13.616-12.834s0-11.279,0-29.171c0-29.258-25.67-26.836-25.67-26.836s-161.593,0-302.546,0
		c-14.896,0-29.563,0-43.785,0c-15.194,0-29.875,0-43.788,0c-15.708,0-30.425,0-43.788,0c-17.082,0-31.937,0-43.788,0
		c-17.464,0-28.407,0-30.276,0c-6.257,0-10.619-1.235-13.511-2.565c-3.402-1.565-4.771-3.27-4.771-3.27S79.501,50.868,63.944,37.644
		C53.166,28.481,44.07,26.603,39.498,26.312c-2.026-0.129-3.169,0.053-3.169,0.053H1.563v24.894c0,0,21.231,0,32.82,0
		c1.877,0,3.57,0.152,5.114,0.421c14.667,2.556,15.104,16.029,15.112,17.354v0.116v24.894v43.297v61.954v3.015v2.156v1.205
		c0,2.176,0,8.205,0,24.729c0,24.428,28.56,26.857,28.56,26.857h1.245v0.09h44.308h44.305h44.308h44.305h44.304h44.309h44.307
		h44.296h44.311h44.308h44.308h44.304h34.422c9.838,1.107,9.885,13.124,9.885,13.124v70.947h15.27c0-24.163,0-131.974,0-142.801
		c0-12.201,12.541-10.848,12.541-10.848h74.906l52.792,24.321l16.846-35.973L815.9,139.879z M67.046,83.542V67.779
		c0,0-0.469-11.084-5.144-15.762L88.8,75.058c0,0-6.786-1.639-12.166,0.935C71.258,78.566,67.046,83.542,67.046,83.542z
		 M341.593,174.733v0.002v25.914v19.023c0,7.898,0,15.684,0,17.621c0,4.245-3.867,3.604-3.867,3.604s-16.384,0-40.842,0
		c-13.029,0-28.351,0-44.706,0c-14.386,0-29.572,0-44.708,0c-15.245,0-30.436,0-44.706,0c-16.616,0-31.977,0-44.706,0
		c-17.024,0-29.331,0-33.643,0c-0.647,0-1.125,0-1.397,0c-9.649,0-11.369-12.453-11.369-12.453v-22.773c0,0,0-1.211,0-3.361
		c0-0.858,0-1.869,0-3.015c0-5.593,0-14.41,0-24.559v-0.002c0-22.267,0-50.95,0-66.2c0-5.315,0-9.004,0-10.212
		c0-1.444,0.263-2.887,0.75-4.277c2.004-5.718,7.915-10.502,16.049-10.502c4.326,0,10.421,2.979,19.092,10.502
		c2.405,2.085,5.009,4.521,7.829,7.341c6.994,6.997,26.364,7.148,26.364,7.148s8.132,0,21.031,0c11.781,0,27.535,0,44.706,0
		c14.411,0,29.815,0,44.708,0c16.152,0,31.691,0,44.706,0c18.65,0,32.099,0,34.657,0c10.113,0,10.051,8.457,10.051,8.457V174.733z
		 M660.392,174.733v0.002v1.766c0,0,0,33.978,0,48.212c0,14.237-13.544,16.219-13.544,16.219h-30.634h-44.178h-44.181h-44.181
		h-44.18h-44.172h-44.179v-12.491v-8.769v-19.023v-25.914v-0.002v-66.2c0,0,17.572,0,44.179,0c12.925,0,27.962,0,44.172,0
		c14.067,0,29.008,0,44.18,0c14.705,0,29.622,0,44.181,0c15.359,0,30.314,0,44.181,0c16.705,0,31.828,0,44.178,0
		c18.55,0,30.842,0,32.809,0c10.209,0,11.369,11.369,11.369,11.369V174.733z M780.759,183.637c-2.974,0-5.563-1.648-6.907-4.081
		c-2.465-2.463-6.287-2.184-6.287-2.184s-75.467,0-82.25,0c-6.779,0-9.139,4.719-9.139,4.719v-6.339v-6.339
		c0,0,2.359,4.716,9.139,4.716c6.783,0,82.25,0,82.25,0s3.822,0.282,6.287-2.184c1.344-2.432,3.934-4.082,6.907-4.082
		c4.356,0,7.886,3.532,7.886,7.888C788.645,180.108,785.115,183.637,780.759,183.637z"/>
	<rect x="572.036" y="174.736" fill="#EBDB23" stroke="#000000" stroke-miterlimit="10" width="44.178" height="66.197"/>
	<path fill="#EBDB23" stroke="#000000" stroke-miterlimit="10" d="M616.214,240.933h30.634c0,0,13.544-1.981,13.544-16.219
		c0-14.234,0-48.212,0-48.212v-1.766h-44.178V240.933z"/>
	<path fill="#EBDB23" stroke="#000000" stroke-miterlimit="10" d="M616.214,174.733v-66.2c-12.35,0-27.473,0-44.178,0v66.2H616.214z
		"/>
	<path fill="#EBDB23" stroke="#000000" stroke-miterlimit="10" d="M649.022,108.533c-1.967,0-14.259,0-32.809,0v66.2h44.178v-54.832
		C660.392,119.902,659.231,108.533,649.022,108.533z"/>
	<g>
		<path d="M583.007,137.781h3.65c0.898,0,1.605,0.247,2.055,0.696c0.359,0.359,0.539,0.797,0.539,1.336v0.022
			c0,0.888-0.472,1.382-1.033,1.696c0.91,0.348,1.471,0.876,1.471,1.932v0.022c0,1.438-1.168,2.156-2.941,2.156h-3.74V137.781z
			 M586.286,140.959c0.764,0,1.246-0.247,1.246-0.831v-0.022c0-0.517-0.404-0.809-1.134-0.809h-1.707v1.662H586.286z
			 M586.747,144.126c0.764,0,1.224-0.27,1.224-0.854v-0.022c0-0.527-0.394-0.854-1.28-0.854h-1.999v1.729H586.747z"/>
		<path d="M590.732,141.341h3.459v1.64h-3.459V141.341z"/>
		<path d="M596.414,139.477l-1.37,0.337l-0.359-1.415l2.258-0.674h1.179v7.918h-1.707V139.477z"/>
		<path d="M599.704,144.272l2.617-2.146c0.977-0.809,1.359-1.235,1.359-1.887c0-0.662-0.438-1.021-1.057-1.021
			c-0.605,0-1.021,0.337-1.605,1.056l-1.213-0.978c0.775-1.056,1.527-1.628,2.932-1.628c1.628,0,2.706,0.954,2.706,2.426v0.022
			c0,1.313-0.674,1.965-2.066,3.043l-1.28,0.988h3.426v1.494h-5.818V144.272z"/>
	</g>
	<g>
		<path d="M582.967,199.974h3.649c0.898,0,1.606,0.247,2.056,0.696c0.359,0.359,0.539,0.798,0.539,1.337v0.021
			c0,0.888-0.472,1.382-1.033,1.696c0.909,0.349,1.472,0.876,1.472,1.932v0.022c0,1.438-1.168,2.156-2.943,2.156h-3.739V199.974z
			 M586.246,203.151c0.764,0,1.247-0.246,1.247-0.83v-0.023c0-0.516-0.404-0.809-1.135-0.809h-1.707v1.662H586.246z
			 M586.706,206.319c0.764,0,1.225-0.27,1.225-0.854v-0.023c0-0.527-0.393-0.854-1.28-0.854h-1.999v1.73H586.706z"/>
		<path d="M590.692,203.534h3.459v1.639h-3.459V203.534z"/>
		<path d="M596.374,201.669l-1.37,0.338l-0.359-1.416l2.257-0.674h1.18v7.918h-1.707V201.669z"/>
		<path d="M599.597,206.79l1.045-1.246c0.596,0.539,1.18,0.854,1.875,0.854c0.809,0,1.314-0.393,1.314-1.09v-0.021
			c0-0.674-0.572-1.067-1.393-1.067c-0.494,0-0.943,0.135-1.314,0.292l-0.999-0.662l0.225-3.875h4.829v1.516h-3.347l-0.09,1.359
			c0.314-0.078,0.595-0.135,1.033-0.135c1.527,0,2.751,0.741,2.751,2.516v0.022c0,1.662-1.179,2.718-2.986,2.718
			C601.282,207.97,600.36,207.521,599.597,206.79z"/>
	</g>
	<g>
		<path d="M627.134,137.781h3.65c0.898,0,1.605,0.247,2.055,0.696c0.359,0.359,0.539,0.797,0.539,1.336v0.022
			c0,0.888-0.472,1.382-1.033,1.696c0.91,0.348,1.471,0.876,1.471,1.932v0.022c0,1.438-1.168,2.156-2.941,2.156h-3.74V137.781z
			 M630.413,140.959c0.764,0,1.246-0.247,1.246-0.831v-0.022c0-0.517-0.404-0.809-1.134-0.809h-1.707v1.662H630.413z
			 M630.874,144.126c0.764,0,1.224-0.27,1.224-0.854v-0.022c0-0.527-0.394-0.854-1.28-0.854h-1.999v1.729H630.874z"/>
		<path d="M634.859,141.341h3.459v1.64h-3.459V141.341z"/>
		<path d="M640.541,139.477l-1.37,0.337l-0.359-1.415l2.258-0.674h1.179v7.918h-1.707V139.477z"/>
		<path d="M643.708,144.418l1.19-1.134c0.539,0.606,1.101,0.943,1.897,0.943c0.652,0,1.112-0.371,1.112-0.955v-0.022
			c0-0.64-0.573-0.999-1.538-0.999h-0.719l-0.27-1.101l1.875-1.887h-3.088v-1.482h5.312v1.303l-1.987,1.897
			c1.066,0.18,2.111,0.741,2.111,2.201v0.022c0,1.482-1.078,2.572-2.83,2.572C645.358,145.777,644.382,145.216,643.708,144.418z"/>
	</g>
	<g>
		<path d="M626.752,199.974h3.649c0.898,0,1.606,0.247,2.056,0.696c0.359,0.359,0.539,0.798,0.539,1.337v0.021
			c0,0.888-0.472,1.382-1.033,1.696c0.909,0.349,1.472,0.876,1.472,1.932v0.022c0,1.438-1.168,2.156-2.943,2.156h-3.739V199.974z
			 M630.031,203.151c0.764,0,1.247-0.246,1.247-0.83v-0.023c0-0.516-0.404-0.809-1.135-0.809h-1.707v1.662H630.031z
			 M630.491,206.319c0.764,0,1.225-0.27,1.225-0.854v-0.023c0-0.527-0.393-0.854-1.28-0.854h-1.999v1.73H630.491z"/>
		<path d="M634.478,203.534h3.459v1.639h-3.459V203.534z"/>
		<path d="M640.159,201.669l-1.37,0.338l-0.359-1.416l2.257-0.674h1.18v7.918h-1.707V201.669z"/>
		<path d="M647.369,206.14h-3.841l-0.281-1.225l4.312-4.998h1.461v4.818h1.055v1.404h-1.055v1.695h-1.651V206.14z M647.369,204.735
			v-2.448l-2.089,2.448H647.369z"/>
	</g>
	<polygon fill="#92D4F6" stroke="#000000" stroke-miterlimit="10" points="572.036,174.733 527.855,174.733 483.675,174.733 
		439.495,174.733 395.323,174.733 351.144,174.733 351.144,174.736 395.323,174.736 439.495,174.736 483.675,174.736 
		527.855,174.736 572.036,174.736 616.214,174.736 660.392,174.736 660.392,174.733 616.214,174.733 	"/>
	<g>
		<path d="M24.641,98.593V98.57c0-2.235,1.685-4.065,4.099-4.065c1.482,0,2.37,0.494,3.1,1.213l-1.101,1.269
			c-0.606-0.55-1.224-0.887-2.01-0.887c-1.325,0-2.28,1.101-2.28,2.448v0.022c0,1.348,0.932,2.471,2.28,2.471
			c0.898,0,1.449-0.359,2.066-0.921l1.101,1.111c-0.809,0.865-1.707,1.404-3.223,1.404C26.359,102.636,24.641,100.85,24.641,98.593z
			"/>
		<path d="M32.782,98.199h3.459v1.64h-3.459V98.199z"/>
		<path d="M38.464,96.335l-1.37,0.337l-0.359-1.415l2.257-0.674h1.179v7.918h-1.707V96.335z"/>
	</g>
	<g>
		<path d="M21.605,170.825v-0.022c0-2.235,1.685-4.065,4.099-4.065c1.482,0,2.37,0.494,3.1,1.213l-1.101,1.269
			c-0.606-0.55-1.224-0.887-2.01-0.887c-1.325,0-2.28,1.101-2.28,2.448v0.022c0,1.348,0.932,2.471,2.28,2.471
			c0.898,0,1.449-0.359,2.066-0.921l1.101,1.111c-0.809,0.865-1.707,1.404-3.223,1.404
			C23.324,174.868,21.605,173.082,21.605,170.825z"/>
		<path d="M29.747,170.432h3.459v1.64h-3.459V170.432z"/>
		<path d="M34.317,173.363l2.617-2.146c0.977-0.809,1.359-1.235,1.359-1.887c0-0.662-0.438-1.021-1.056-1.021
			c-0.606,0-1.022,0.337-1.606,1.056l-1.213-0.978c0.775-1.056,1.527-1.628,2.931-1.628c1.628,0,2.707,0.954,2.707,2.426v0.022
			c0,1.313-0.674,1.965-2.066,3.043l-1.28,0.988h3.425v1.494h-5.817V173.363z"/>
	</g>
</g>
</svg>
